<svg width="446" height="23" viewBox="0 0 446 23" fill="none" xmlns="http://www.w3.org/2000/svg">
<path d="M432.514 0.64333C432.247 0.912576 432.097 1.27621 432.097 1.65585C432.097 2.0355 432.247 2.39983 432.514 2.66907L439.52 9.69638H423.468C423.087 9.69638 422.722 9.84789 422.452 10.1174C422.183 10.3869 422.031 10.7523 422.031 11.1334C422.031 11.5145 422.183 11.88 422.452 12.1494C422.722 12.4189 423.087 12.5705 423.468 12.5705H439.52L432.513 19.5886C432.245 19.8579 432.094 20.2226 432.094 20.6026C432.094 20.9826 432.245 21.3472 432.513 21.6165C432.782 21.8841 433.146 22.0347 433.526 22.0347C433.906 22.0347 434.27 21.8841 434.539 21.6165L445.024 11.1334L434.533 0.64333C434.265 0.37786 433.902 0.228638 433.524 0.228638C433.146 0.228638 432.783 0.37786 432.514 0.64333Z" fill="#090047"/>
<path d="M11.4617 0.643452C11.194 0.912698 11.0438 1.27633 11.0438 1.65597C11.0438 2.03562 11.194 2.39995 11.4617 2.6692L18.4672 9.6965H2.41555C2.03443 9.6965 1.66893 9.84801 1.39943 10.1175C1.12994 10.387 0.978516 10.7524 0.978516 11.1335C0.978516 11.5147 1.12994 11.8801 1.39943 12.1496C1.66893 12.4191 2.03443 12.5706 2.41555 12.5706H18.4672L11.4603 19.5888C11.1922 19.8581 11.0416 20.2227 11.0416 20.6027C11.0416 20.9827 11.1922 21.3473 11.4603 21.6166C11.7295 21.8843 12.0938 22.0348 12.4734 22.0348C12.8531 22.0348 13.2172 21.8843 13.4865 21.6166L23.9711 11.1335L13.4808 0.643452C13.2118 0.377982 12.8491 0.22876 12.4712 0.22876C12.0933 0.22876 11.7306 0.377982 11.4617 0.643452Z" fill="#090047"/>
</svg>
