<svg width="72" height="72" viewBox="0 0 72 72" fill="none" xmlns="http://www.w3.org/2000/svg">
<path d="M35.769 71.6279C26.8911 71.6168 18.3338 68.3089 11.7571 62.3454C5.18036 56.382 1.053 48.1879 0.175554 39.3536C-0.701892 30.5192 1.73318 21.6744 7.00841 14.5338C12.2836 7.39321 20.023 2.46587 28.7252 0.708624C37.4274 -1.04863 46.472 0.489186 54.1047 5.02324C61.7374 9.5573 67.4141 16.7644 70.0335 25.247C72.6529 33.7296 72.0284 42.8831 68.2811 50.9312C64.5337 58.9794 57.9306 65.3491 49.7528 68.8044C45.329 70.6768 40.5727 71.637 35.769 71.6279ZM35.769 1.21313C28.9477 1.21313 22.2796 3.23615 16.608 7.02583C10.9363 10.8155 6.51579 16.2014 3.90541 22.5035C1.29503 28.8055 0.612057 35.7402 1.94282 42.4304C3.27358 49.1206 6.55826 55.2662 11.3816 60.0896C16.205 64.9129 22.3503 68.1978 29.0405 69.5285C35.7307 70.8593 42.6653 70.1763 48.9673 67.5659C55.2693 64.9556 60.6558 60.5344 64.4455 54.8627C68.2352 49.1911 70.2579 42.5233 70.2579 35.702C70.2476 26.5582 66.6106 17.7914 60.1449 11.3257C53.6792 4.86002 44.9128 1.2234 35.769 1.21313Z" fill="#A1AEB7"/>
</svg>
