<svg width="73" height="72" viewBox="0 0 73 72" fill="none" xmlns="http://www.w3.org/2000/svg">
<path d="M36.6671 71.7482C27.7882 71.7369 19.23 68.4278 12.6525 62.4636C6.07506 56.4993 1.94726 48.305 1.06986 39.4696C0.192462 30.6341 2.62802 21.7877 7.90403 14.6463C13.18 7.50496 20.9204 2.57774 29.6237 0.820446C38.327 -0.936844 47.3727 0.600996 55.0063 5.13577C62.6398 9.67054 68.317 16.8786 70.9365 25.3623C73.5561 33.846 72.9313 43.001 69.1833 51.0501C65.4353 59.0992 58.8313 65.4692 50.6523 68.9246C46.2281 70.7974 41.4714 71.7576 36.6671 71.7482ZM36.6671 1.33337C29.8458 1.33337 23.1778 3.35639 17.5061 7.14607C11.8344 10.9358 7.41392 16.3217 4.80353 22.6237C2.19315 28.9257 1.51013 35.8605 2.8409 42.5507C4.17166 49.2408 7.45643 55.3864 12.2798 60.2098C17.1031 65.0331 23.2485 68.318 29.9387 69.6488C36.6288 70.9795 43.5634 70.2966 49.8654 67.6862C56.1674 65.0758 61.5539 60.6547 65.3435 54.983C69.1332 49.3113 71.156 42.6435 71.156 35.8223C71.1457 26.6784 67.5088 17.9117 61.0431 11.446C54.5774 4.98026 45.811 1.34364 36.6671 1.33337Z" fill="#A1AEB7"/>
</svg>
