<svg width="72" height="72" viewBox="0 0 72 72" fill="none" xmlns="http://www.w3.org/2000/svg">
<path d="M35.7674 71.6279C26.8897 71.6164 18.3326 68.3076 11.7561 62.344C5.1796 56.3804 1.0525 48.1871 0.175327 39.3528C-0.701848 30.5185 1.73343 21.6734 7.0088 14.533C12.2842 7.39262 20.0236 2.46562 28.7257 0.708557C37.4279 -1.04851 46.4725 0.489036 54.1051 5.02318C61.7377 9.55732 67.4142 16.7651 70.0335 25.2476C72.6528 33.7302 72.0282 42.8831 68.2808 50.9312C64.5335 58.9793 57.9305 65.3491 49.7527 68.8043C45.3284 70.677 40.5717 71.6373 35.7674 71.6279ZM35.7674 1.21306C28.9462 1.21306 22.2781 3.23608 16.6064 7.02577C10.9348 10.8155 6.51425 16.2014 3.90387 22.5034C1.29349 28.8054 0.610514 35.7402 1.94128 42.4303C3.27204 49.1205 6.55672 55.2661 11.3801 60.0895C16.2034 64.9128 22.3488 68.1977 29.0389 69.5285C35.7291 70.8592 42.6637 70.1762 48.9657 67.5659C55.2678 64.9555 60.6542 60.5343 64.4439 54.8627C68.2336 49.191 70.2563 42.5232 70.2563 35.702C70.246 26.5581 66.6091 17.7913 60.1434 11.3256C53.6777 4.85995 44.9113 1.22333 35.7674 1.21306Z" fill="#A1AEB7"/>
</svg>
