<svg width="181" height="191" viewBox="0 0 181 191" fill="none" xmlns="http://www.w3.org/2000/svg">
<path d="M87.2517 12.7765H0.298828L1.17776 0.0983887H88.1306L87.2517 12.7765Z" fill="#AFBAFF"/>
<path d="M87.2517 30.5355H0.298828L1.17776 17.8574H88.1306L87.2517 30.5355Z" fill="#AFBAFF"/>
<path d="M87.2517 48.3066H0.298828L1.17776 35.6165H88.1306L87.2517 48.3066Z" fill="#AFBAFF"/>
<path d="M87.2517 66.0656H0.298828L1.17776 53.3755H88.1306L87.2517 66.0656Z" fill="#AFBAFF"/>
<path d="M87.2517 83.8246H0.298828L1.17776 71.1344H88.1306L87.2517 83.8246Z" fill="#AFBAFF"/>
<path d="M87.2517 101.584H0.298828L1.17776 88.9054H88.1306L87.2517 101.584Z" fill="#AFBAFF"/>
<path d="M87.2517 119.343H0.298828L1.17776 106.664H88.1306L87.2517 119.343Z" fill="#AFBAFF"/>
<path d="M87.2517 137.114H0.298828L1.17776 124.423H88.1306L87.2517 137.114Z" fill="#AFBAFF"/>
<path d="M87.2517 154.873H0.298828L1.17776 142.182H88.1306L87.2517 154.873Z" fill="#AFBAFF"/>
<path d="M87.2517 172.632H0.298828L1.17776 159.941H88.1306L87.2517 172.632Z" fill="#AFBAFF"/>
<path d="M87.2517 190.391H0.298828L1.17776 177.7H88.1306L87.2517 190.391Z" fill="#AFBAFF"/>
<path d="M179.201 12.7765H92.2362L93.1152 0.0983887H180.08L179.201 12.7765Z" fill="#AFBAFF"/>
<path d="M179.201 30.5355H92.2362L93.1152 17.8574H180.08L179.201 30.5355Z" fill="#AFBAFF"/>
<path d="M179.201 48.3066H92.2362L93.1152 35.6165H180.08L179.201 48.3066Z" fill="#AFBAFF"/>
<path d="M179.201 66.0656H92.2362L93.1152 53.3755H180.08L179.201 66.0656Z" fill="#AFBAFF"/>
<path d="M179.201 83.8246H92.2362L93.1152 71.1344H180.08L179.201 83.8246Z" fill="#AFBAFF"/>
<path d="M179.201 101.584H92.2362L93.1152 88.9054H180.08L179.201 101.584Z" fill="#AFBAFF"/>
<path d="M179.201 119.343H92.2362L93.1152 106.664H180.08L179.201 119.343Z" fill="#AFBAFF"/>
<path d="M179.201 137.114H92.2362L93.1152 124.423H180.08L179.201 137.114Z" fill="#AFBAFF"/>
<path d="M179.201 154.873H92.2362L93.1152 142.182H180.08L179.201 154.873Z" fill="#AFBAFF"/>
<path d="M179.201 172.632H92.2362L93.1152 159.941H180.08L179.201 172.632Z" fill="#AFBAFF"/>
<path d="M179.201 190.391H92.2362L93.1152 177.7H180.08L179.201 190.391Z" fill="#AFBAFF"/>
</svg>
