<svg width="416" height="430" viewBox="0 0 416 430" fill="none" xmlns="http://www.w3.org/2000/svg">
<path d="M48.8313 71.5515C48.8313 71.5515 -9.28578 126.622 1.80306 203.028C12.8919 279.434 80.8938 338.442 134.412 387.541C187.929 436.64 263.902 443.383 318.708 405.806C373.514 368.229 343.908 320.707 374.875 252.958C405.841 185.209 426.032 170.857 409.417 100.748C392.802 30.6396 293.34 -13.6556 194.335 4.87397C95.3298 23.4035 48.8313 71.5515 48.8313 71.5515Z" fill="#6674CC"/>
<path opacity="0.7" d="M48.8313 71.5515C48.8313 71.5515 -9.28578 126.622 1.80306 203.028C12.8919 279.434 80.8938 338.442 134.412 387.541C187.929 436.64 263.902 443.383 318.708 405.806C373.514 368.229 343.908 320.707 374.875 252.958C405.841 185.209 426.032 170.857 409.417 100.748C392.802 30.6396 293.34 -13.6556 194.335 4.87397C95.3298 23.4035 48.8313 71.5515 48.8313 71.5515Z" fill="white"/>
</svg>
