<svg width="442" height="254" viewBox="0 0 442 254" fill="none" xmlns="http://www.w3.org/2000/svg">
<path d="M437.872 0.381094L402.438 0.682094C402.438 0.682094 400.03 0.381102 399.512 2.13894C399.512 2.13894 393.36 17.6705 393.071 23.233C392.782 28.7955 394.275 27.9166 391.867 35.273C389.459 42.6295 382.789 59.8707 378.984 73.9335C373.867 92.8242 372.53 112.883 372.205 132.388C372.205 135.518 370.279 162.488 375.155 162.488C379.201 162.488 416.489 167.436 416.934 160.248C418.728 131.593 413.551 103.6 423.496 75.7395C427.361 64.9035 431.791 53.4895 435.078 42.1719C438.365 30.8543 438.931 19.0792 441.098 7.49674C442.555 -0.497822 437.872 0.381094 437.872 0.381094Z" fill="#263238"/>
<path d="M441.35 3.89672C441.001 -0.196877 437.871 0.381046 437.871 0.381046L402.437 0.682046C402.437 0.682046 400.029 0.381054 399.511 2.13889C399.511 2.13889 393.359 17.6705 393.07 23.233C392.983 24.7026 393.023 26.1769 393.19 27.6396L393.937 28.8436C393.937 28.8436 395.141 39.0896 409.167 39.6796C423.194 40.2696 431.14 33.8161 434.066 27.6396C436.992 21.4631 438.172 11.5301 440.508 5.6666C440.759 5.06286 441.04 4.47215 441.35 3.89672Z" fill="#090047"/>
<path d="M433.126 15.3349C430.718 23.8954 432.175 26.2673 429.803 41.0042C427.431 55.7412 418.871 72.3082 415.536 87.587C412.2 102.866 413.645 156.504 414.115 158.888C414.301 160.151 414.37 161.429 414.32 162.705C415.921 162.103 416.884 161.284 416.956 160.164C418.75 131.509 413.573 103.516 423.518 75.6553C427.383 64.8193 431.814 53.4054 435.101 42.0878C438.387 30.7702 438.953 18.9951 441.121 7.41262C442.024 2.59662 440.603 1.01936 439.363 0.549805C436.67 5.19611 434.574 10.1638 433.126 15.3349Z" fill="#090047"/>
<path d="M364.68 231.609L364.44 231.417V198.331H369.195V177.417H351.617V198.331H356.361V231.983L314.293 245.395V248.718C314.293 249.727 314.694 250.695 315.407 251.408C316.121 252.122 317.089 252.523 318.098 252.523C319.107 252.523 320.074 252.122 320.788 251.408C321.501 250.695 321.902 249.727 321.902 248.718V248.249L357.083 244.155V249.2C357.083 250.081 357.433 250.926 358.056 251.549C358.68 252.173 359.525 252.523 360.406 252.523C361.287 252.523 362.133 252.173 362.756 251.549C363.379 250.926 363.729 250.081 363.729 249.2V243.986L400.331 248.249V248.718C400.331 249.727 400.732 250.695 401.445 251.408C402.159 252.122 403.126 252.523 404.135 252.523C405.144 252.523 406.112 252.122 406.826 251.408C407.539 250.695 407.94 249.727 407.94 248.718V245.395L364.68 231.609Z" fill="#263238"/>
<path d="M414.838 157.021H310.367C307.707 157.021 305.551 159.178 305.551 161.837V176.466C305.551 179.126 307.707 181.282 310.367 181.282H414.838C417.498 181.282 419.654 179.126 419.654 176.466V161.837C419.654 159.178 417.498 157.021 414.838 157.021Z" fill="#263238"/>
<path d="M3.60082 0.381094L39.0345 0.682094C39.0345 0.682094 41.4425 0.381102 41.9723 2.13894C41.9723 2.13894 48.1247 17.6705 48.4137 23.233C48.7027 28.7955 47.2097 27.9166 49.6177 35.273C52.0257 42.6295 58.6959 59.8707 62.5005 73.9335C67.6295 92.8242 68.9539 112.883 69.279 132.388C69.279 135.518 71.2054 162.488 66.3292 162.488C62.2958 162.488 25.0079 167.436 24.5504 160.248C22.7685 131.593 27.9337 103.6 17.9886 75.7395C14.1238 64.9035 9.69306 53.4895 6.41818 42.1719C3.1433 30.8543 2.56538 19.0792 0.398176 7.49674C-1.02254 -0.497822 3.60082 0.381094 3.60082 0.381094Z" fill="#263238"/>
<path d="M0.179688 3.89672C0.528847 -0.196877 3.64721 0.381046 3.64721 0.381046L39.0809 0.682046C39.0809 0.682046 41.4889 0.381054 42.0187 2.13889C42.0187 2.13889 48.1711 17.6705 48.4601 23.233C48.5385 24.703 48.4942 26.177 48.3276 27.6396L47.5812 28.8436C47.5812 28.8436 46.3772 39.0896 32.3506 39.6796C18.324 40.2696 10.3414 33.8161 7.40369 27.6276C4.46593 21.439 3.31009 11.5181 0.962289 5.65457C0.735749 5.05394 0.474439 4.46699 0.179688 3.89672Z" fill="#090047"/>
<path d="M8.3436 15.3349C10.7516 23.8954 9.29476 26.2673 11.6666 41.0042C14.0385 55.7412 22.611 72.3082 25.934 87.587C29.2571 102.866 27.8725 156.504 27.3548 158.888C27.1743 160.152 27.1058 161.429 27.1501 162.705C25.5608 162.103 24.5856 161.284 24.5133 160.164C22.7314 131.509 27.8966 103.516 17.9515 75.6553C14.0867 64.8193 9.65597 53.4054 6.38109 42.0878C3.10621 30.7702 2.52829 18.9951 0.361086 7.41262C-0.529874 2.59662 0.890844 1.01936 2.11892 0.549805C4.81332 5.19382 6.90505 10.1622 8.3436 15.3349Z" fill="#090047"/>
<path d="M76.7914 231.609L77.0323 231.417V198.331H72.2163V177.417H89.8067V198.331H85.0509V231.983L127.119 245.395V248.718C127.119 249.727 126.718 250.695 126.004 251.408C125.291 252.122 124.323 252.523 123.314 252.523C122.305 252.523 121.337 252.122 120.624 251.408C119.91 250.695 119.509 249.727 119.509 248.718V248.249L84.4609 244.155V249.2C84.4099 250.048 84.0369 250.845 83.4182 251.427C82.7995 252.01 81.9817 252.335 81.1319 252.335C80.282 252.335 79.4642 252.01 78.8455 251.427C78.2268 250.845 77.8539 250.048 77.8028 249.2V243.986L41.1169 248.249V248.718C41.146 249.235 41.0694 249.752 40.8916 250.238C40.7139 250.725 40.4388 251.169 40.0832 251.546C39.7276 251.922 39.299 252.221 38.8236 252.426C38.3482 252.631 37.836 252.737 37.3183 252.737C36.8007 252.737 36.2885 252.631 35.813 252.426C35.3376 252.221 34.909 251.922 34.5534 251.546C34.1978 251.169 33.9227 250.725 33.745 250.238C33.5672 249.752 33.4906 249.235 33.5197 248.718V245.395L76.7914 231.609Z" fill="#263238"/>
<path d="M26.6328 181.27H131.104C133.764 181.27 135.92 179.114 135.92 176.454V161.825C135.92 159.166 133.764 157.009 131.104 157.009H26.6328C23.973 157.009 21.8168 159.166 21.8168 161.825V176.454C21.8168 179.114 23.973 181.27 26.6328 181.27Z" fill="#263238"/>
<path d="M393.889 88.8872H107.818V253.305H393.889V88.8872Z" fill="#CCCCCC"/>
<path d="M393.672 92.8359H107.963V97.3871H393.672V92.8359Z" fill="#263238"/>
<path d="M396.008 86.1904H101.449V93.3783H396.008V86.1904Z" fill="#CCCCCC"/>
</svg>
