<svg width="115" height="183" viewBox="0 0 115 183" fill="none" xmlns="http://www.w3.org/2000/svg">
<path d="M75.2029 96.1112C72.0779 99.7353 69.9677 104.122 69.0866 108.825L56.8179 115.7V83.1923L57.0587 83.5174L76.5996 69.2139C79.0678 69.5991 88.5553 70.6828 97.2001 66.0233C107.241 60.6173 114.574 42.0998 114.574 42.0998C114.574 42.0998 90.6382 39.3908 82.5353 49.4321C75.9615 57.5712 75.7327 65.4574 75.8892 68.1423L56.8179 82.0966V58.0769C60.3896 56.4138 63.5467 53.9769 66.0601 50.9428C68.5736 47.9087 70.3806 44.3534 71.3502 40.5346C74.8177 27.0257 56.3002 0.405273 56.3002 0.405273C56.3002 0.405273 37.0361 27.8083 40.8528 41.7025C44.1277 53.4655 52.8928 57.1979 55.5296 58.0648V110.138L41.804 98.6637C42.117 95.9186 42.3699 87.3341 34.7245 78.7375C25.4537 68.3109 0.759644 69.1055 0.759644 69.1055C0.759644 69.1055 11.1742 89.9467 20.0236 96.8938C27.7774 102.914 38.481 100.506 41.0575 99.7714L55.5055 111.811V127.644H34.0141L42.7913 182.498H69.1228L77.924 127.656H56.8179V117.181L70.3027 109.62C73.5776 110.535 82.74 112.413 91.4088 108.079C102.245 102.673 111.094 91.0905 111.094 91.0905C111.094 91.0905 85.2443 84.5287 75.2029 96.1112Z" fill="#090047"/>
<path opacity="0.5" d="M75.2029 96.1112C72.0779 99.7353 69.9677 104.122 69.0866 108.825L56.8179 115.7V83.1923L57.0587 83.5174L76.5996 69.2139C79.0678 69.5991 88.5553 70.6828 97.2001 66.0233C107.241 60.6173 114.574 42.0998 114.574 42.0998C114.574 42.0998 90.6382 39.3908 82.5353 49.4321C75.9615 57.5712 75.7327 65.4574 75.8892 68.1423L56.8179 82.0966V58.0769C60.3896 56.4138 63.5467 53.9769 66.0601 50.9428C68.5736 47.9087 70.3806 44.3534 71.3502 40.5346C74.8177 27.0257 56.3002 0.405273 56.3002 0.405273C56.3002 0.405273 37.0361 27.8083 40.8528 41.7025C44.1277 53.4655 52.8928 57.1979 55.5296 58.0648V110.138L41.804 98.6637C42.117 95.9186 42.3699 87.3341 34.7245 78.7375C25.4537 68.3109 0.759644 69.1055 0.759644 69.1055C0.759644 69.1055 11.1742 89.9467 20.0236 96.8938C27.7774 102.914 38.481 100.506 41.0575 99.7714L55.5055 111.811V127.644H34.0141L42.7913 182.498H69.1228L77.924 127.656H56.8179V117.181L70.3027 109.62C73.5776 110.535 82.74 112.413 91.4088 108.079C102.245 102.673 111.094 91.0905 111.094 91.0905C111.094 91.0905 85.2443 84.5287 75.2029 96.1112Z" fill="white"/>
</svg>
