<svg width="391" height="32" viewBox="0 0 391 32" fill="none" xmlns="http://www.w3.org/2000/svg">
<path d="M390.441 3.64868V24.0197H385.479V3.64868H390.441Z" fill="#6775CC"/>
<path d="M376.764 20.4214H369.161L367.942 24.0197H362.748L370.119 3.64868H375.864L383.235 24.0197H377.983L376.764 20.4214ZM375.487 16.591L372.963 9.13319L370.467 16.591H375.487Z" fill="#6775CC"/>
<path d="M344.392 7.5954C345.534 7.5954 346.53 7.82755 347.381 8.29184C348.252 8.75614 348.919 9.36553 349.384 10.12V7.82755H354.346V23.9909C354.346 25.4805 354.046 26.825 353.446 28.0245C352.866 29.2432 351.966 30.2105 350.748 30.9263C349.548 31.6421 348.049 32 346.25 32C343.851 32 341.907 31.4293 340.417 30.2879C338.927 29.1659 338.076 27.6375 337.863 25.703H342.767C342.922 26.322 343.29 26.8057 343.87 27.1539C344.451 27.5215 345.166 27.7053 346.018 27.7053C347.043 27.7053 347.855 27.4054 348.455 26.8057C349.074 26.2253 349.384 25.287 349.384 23.9909V21.6984C348.9 22.4529 348.233 23.072 347.381 23.5556C346.53 24.0199 345.534 24.252 344.392 24.252C343.058 24.252 341.848 23.9135 340.765 23.2364C339.682 22.54 338.821 21.563 338.183 20.3055C337.563 19.0287 337.254 17.5584 337.254 15.8947C337.254 14.231 337.563 12.7704 338.183 11.5129C338.821 10.2554 339.682 9.28815 340.765 8.61105C341.848 7.93395 343.058 7.5954 344.392 7.5954ZM349.384 15.9237C349.384 14.6856 349.035 13.7086 348.339 12.9928C347.662 12.2771 346.83 11.9192 345.843 11.9192C344.857 11.9192 344.015 12.2771 343.319 12.9928C342.642 13.6893 342.303 14.6566 342.303 15.8947C342.303 17.1328 342.642 18.1195 343.319 18.8546C344.015 19.5704 344.857 19.9283 345.843 19.9283C346.83 19.9283 347.662 19.5704 348.339 18.8546C349.035 18.1388 349.384 17.1618 349.384 15.9237Z" fill="#6775CC"/>
<path d="M328.55 7.65326C330.446 7.65326 331.955 8.27232 333.077 9.51045C334.218 10.7292 334.789 12.4123 334.789 14.5597V24.0197H329.856V15.2271C329.856 14.1437 329.575 13.3022 329.014 12.7025C328.453 12.1028 327.699 11.8029 326.751 11.8029C325.803 11.8029 325.048 12.1028 324.487 12.7025C323.926 13.3022 323.646 14.1437 323.646 15.2271V24.0197H318.684V7.82737H323.646V9.97474C324.149 9.25895 324.826 8.69793 325.677 8.29167C326.528 7.86606 327.486 7.65326 328.55 7.65326Z" fill="#6775CC"/>
<path d="M312.624 6.14431C311.753 6.14431 311.038 5.89282 310.477 5.38983C309.935 4.86749 309.664 4.22909 309.664 3.4746C309.664 2.70078 309.935 2.06237 310.477 1.55938C311.038 1.03705 311.753 0.775879 312.624 0.775879C313.475 0.775879 314.172 1.03705 314.713 1.55938C315.274 2.06237 315.555 2.70078 315.555 3.4746C315.555 4.22909 315.274 4.86749 314.713 5.38983C314.172 5.89282 313.475 6.14431 312.624 6.14431ZM315.091 7.82739V24.0197H310.128V7.82739H315.091Z" fill="#6775CC"/>
<path d="M300.534 24.252C299.122 24.252 297.864 24.0102 296.761 23.5266C295.659 23.0429 294.788 22.3852 294.15 21.5533C293.511 20.7021 293.153 19.7542 293.076 18.7095H297.98C298.038 19.2705 298.299 19.7252 298.764 20.0734C299.228 20.4216 299.799 20.5957 300.476 20.5957C301.095 20.5957 301.569 20.4796 301.898 20.2475C302.246 19.996 302.42 19.6768 302.42 19.2899C302.42 18.8256 302.178 18.487 301.694 18.2742C301.211 18.0421 300.427 17.7906 299.344 17.5197C298.183 17.2489 297.216 16.9684 296.442 16.6782C295.668 16.3687 295.001 15.8947 294.44 15.2563C293.879 14.5985 293.598 13.7183 293.598 12.6156C293.598 11.687 293.85 10.8455 294.353 10.091C294.875 9.31717 295.63 8.70778 296.616 8.26282C297.622 7.81787 298.812 7.5954 300.186 7.5954C302.217 7.5954 303.813 8.09839 304.974 9.10436C306.154 10.1103 306.831 11.4452 307.005 13.1089H302.42C302.343 12.5479 302.091 12.1029 301.665 11.7741C301.259 11.4452 300.718 11.2808 300.04 11.2808C299.46 11.2808 299.015 11.3968 298.706 11.629C298.396 11.8418 298.241 12.1416 298.241 12.5286C298.241 12.9928 298.483 13.3411 298.967 13.5732C299.47 13.8054 300.244 14.0375 301.288 14.2697C302.488 14.5792 303.465 14.8887 304.219 15.1983C304.974 15.4884 305.631 15.9721 306.192 16.6492C306.773 17.3069 307.073 18.1968 307.092 19.3189C307.092 20.2668 306.821 21.118 306.279 21.8725C305.757 22.6077 304.993 23.188 303.987 23.6136C303 24.0392 301.849 24.252 300.534 24.252Z" fill="#6775CC"/>
<path d="M278.363 3.64868V15.8365C278.363 17.0553 278.662 17.9935 279.262 18.6513C279.862 19.309 280.742 19.6379 281.903 19.6379C283.064 19.6379 283.953 19.309 284.573 18.6513C285.192 17.9935 285.501 17.0553 285.501 15.8365V3.64868H290.463V15.8075C290.463 17.6259 290.076 19.1639 289.303 20.4214C288.529 21.6789 287.484 22.6268 286.169 23.2652C284.872 23.9036 283.421 24.2228 281.816 24.2228C280.21 24.2228 278.769 23.9133 277.492 23.2942C276.235 22.6558 275.238 21.7079 274.503 20.4504C273.768 19.1736 273.4 17.6259 273.4 15.8075V3.64868H278.363Z" fill="#6775CC"/>
<path d="M264.719 15.6626C264.719 16.1269 264.69 16.6105 264.632 17.1135H253.402C253.479 18.1195 253.799 18.8933 254.36 19.435C254.94 19.9573 255.646 20.2185 256.478 20.2185C257.716 20.2185 258.577 19.6961 259.061 18.6515H264.342C264.071 19.7155 263.578 20.6731 262.862 21.5243C262.166 22.3755 261.285 23.0429 260.221 23.5266C259.157 24.0102 257.968 24.252 256.652 24.252C255.066 24.252 253.654 23.9135 252.415 23.2364C251.177 22.5593 250.21 21.592 249.514 20.3345C248.817 19.0771 248.469 17.6068 248.469 15.9237C248.469 14.2406 248.807 12.7704 249.485 11.5129C250.181 10.2554 251.148 9.28815 252.386 8.61105C253.625 7.93395 255.046 7.5954 256.652 7.5954C258.219 7.5954 259.612 7.92428 260.831 8.58203C262.05 9.23978 262.998 10.178 263.675 11.3968C264.371 12.6156 264.719 14.0375 264.719 15.6626ZM259.641 14.3567C259.641 13.5055 259.351 12.8284 258.771 12.3254C258.19 11.8224 257.465 11.5709 256.594 11.5709C255.762 11.5709 255.056 11.8128 254.476 12.2964C253.915 12.78 253.567 13.4668 253.431 14.3567H259.641Z" fill="#6775CC"/>
<path d="M239.396 7.65326C241.408 7.65326 243.004 8.26265 244.184 9.48143C245.383 10.7002 245.983 12.393 245.983 14.5597V24.0197H241.05V15.2271C241.05 14.1824 240.769 13.3796 240.208 12.8186C239.666 12.2382 238.912 11.948 237.945 11.948C236.977 11.948 236.213 12.2382 235.652 12.8186C235.11 13.3796 234.84 14.1824 234.84 15.2271V24.0197H229.907V15.2271C229.907 14.1824 229.626 13.3796 229.065 12.8186C228.523 12.2382 227.769 11.948 226.802 11.948C225.834 11.948 225.07 12.2382 224.509 12.8186C223.967 13.3796 223.697 14.1824 223.697 15.2271V24.0197H218.734V7.82737H223.697V9.85867C224.2 9.18157 224.857 8.64956 225.67 8.26265C226.482 7.85639 227.401 7.65326 228.427 7.65326C229.645 7.65326 230.729 7.91443 231.677 8.43676C232.644 8.95909 233.398 9.7039 233.94 10.6712C234.501 9.78129 235.265 9.05582 236.233 8.4948C237.2 7.93377 238.254 7.65326 239.396 7.65326Z" fill="#6775CC"/>
<path d="M215.172 7.82745V24.0198H210.209V21.8144C209.706 22.5302 209.02 23.1106 208.149 23.5555C207.298 23.9811 206.35 24.1939 205.305 24.1939C204.067 24.1939 202.974 23.9231 202.026 23.3814C201.078 22.8204 200.343 22.0175 199.821 20.9729C199.298 19.9282 199.037 18.6997 199.037 17.2875V7.82745H203.97V16.6201C203.97 17.7034 204.251 18.545 204.812 19.1447C205.373 19.7444 206.127 20.0443 207.075 20.0443C208.043 20.0443 208.807 19.7444 209.368 19.1447C209.929 18.545 210.209 17.7034 210.209 16.6201V7.82745H215.172Z" fill="#6775CC"/>
<path d="M189.589 24.252C188.177 24.252 186.919 24.0102 185.816 23.5266C184.714 23.0429 183.843 22.3852 183.205 21.5533C182.566 20.7021 182.208 19.7542 182.131 18.7095H187.035C187.093 19.2705 187.354 19.7252 187.819 20.0734C188.283 20.4216 188.854 20.5957 189.531 20.5957C190.15 20.5957 190.624 20.4796 190.953 20.2475C191.301 19.996 191.475 19.6768 191.475 19.2899C191.475 18.8256 191.233 18.487 190.75 18.2742C190.266 18.0421 189.482 17.7906 188.399 17.5197C187.238 17.2489 186.271 16.9684 185.497 16.6782C184.723 16.3687 184.056 15.8947 183.495 15.2563C182.934 14.5985 182.653 13.7183 182.653 12.6156C182.653 11.687 182.905 10.8455 183.408 10.091C183.93 9.31717 184.685 8.70778 185.671 8.26282C186.677 7.81787 187.867 7.5954 189.241 7.5954C191.272 7.5954 192.868 8.09839 194.029 9.10436C195.209 10.1103 195.886 11.4452 196.06 13.1089H191.475C191.398 12.5479 191.146 12.1029 190.721 11.7741C190.314 11.4452 189.773 11.2808 189.096 11.2808C188.515 11.2808 188.07 11.3968 187.761 11.629C187.451 11.8418 187.296 12.1416 187.296 12.5286C187.296 12.9928 187.538 13.3411 188.022 13.5732C188.525 13.8054 189.299 14.0375 190.343 14.2697C191.543 14.5792 192.52 14.8887 193.274 15.1983C194.029 15.4884 194.686 15.9721 195.247 16.6492C195.828 17.3069 196.128 18.1968 196.147 19.3189C196.147 20.2668 195.876 21.118 195.334 21.8725C194.812 22.6077 194.048 23.188 193.042 23.6136C192.055 24.0392 190.904 24.252 189.589 24.252Z" fill="#6775CC"/>
<path d="M180.383 15.6626C180.383 16.1269 180.354 16.6105 180.296 17.1135H169.066C169.143 18.1195 169.463 18.8933 170.024 19.435C170.604 19.9573 171.31 20.2185 172.142 20.2185C173.38 20.2185 174.241 19.6961 174.725 18.6515H180.006C179.735 19.7155 179.242 20.6731 178.526 21.5243C177.83 22.3755 176.949 23.0429 175.885 23.5266C174.821 24.0102 173.632 24.252 172.316 24.252C170.73 24.252 169.317 23.9135 168.079 23.2364C166.841 22.5593 165.874 21.592 165.177 20.3345C164.481 19.0771 164.133 17.6068 164.133 15.9237C164.133 14.2406 164.471 12.7704 165.148 11.5129C165.845 10.2554 166.812 9.28815 168.05 8.61105C169.288 7.93395 170.71 7.5954 172.316 7.5954C173.883 7.5954 175.276 7.92428 176.495 8.58203C177.713 9.23978 178.661 10.178 179.339 11.3968C180.035 12.6156 180.383 14.0375 180.383 15.6626ZM175.305 14.3567C175.305 13.5055 175.015 12.8284 174.434 12.3254C173.854 11.8224 173.129 11.5709 172.258 11.5709C171.426 11.5709 170.72 11.8128 170.14 12.2964C169.579 12.78 169.23 13.4668 169.095 14.3567H175.305Z" fill="#6775CC"/>
<path d="M156.576 24.0197L152.339 16.3298H151.15V24.0197H146.188V3.64868H154.516C156.122 3.64868 157.485 3.92919 158.607 4.49022C159.749 5.05124 160.6 5.82507 161.161 6.8117C161.722 7.77899 162.003 8.86235 162.003 10.0618C162.003 11.416 161.616 12.6251 160.842 13.6891C160.087 14.7531 158.965 15.5076 157.476 15.9525L162.177 24.0197H156.576ZM151.15 12.8185H154.226C155.135 12.8185 155.812 12.5961 156.257 12.1511C156.721 11.7062 156.953 11.0774 156.953 10.2649C156.953 9.49108 156.721 8.88169 156.257 8.43674C155.812 7.99179 155.135 7.76932 154.226 7.76932H151.15V12.8185Z" fill="#6775CC"/>
<path d="M137.422 15.6626C137.422 16.1269 137.393 16.6105 137.335 17.1135H126.105C126.182 18.1195 126.502 18.8933 127.063 19.435C127.643 19.9573 128.349 20.2185 129.181 20.2185C130.419 20.2185 131.28 19.6961 131.764 18.6515H137.045C136.774 19.7155 136.281 20.6731 135.565 21.5243C134.869 22.3755 133.988 23.0429 132.924 23.5266C131.86 24.0102 130.671 24.252 129.355 24.252C127.769 24.252 126.357 23.9135 125.118 23.2364C123.88 22.5593 122.913 21.592 122.217 20.3345C121.52 19.0771 121.172 17.6068 121.172 15.9237C121.172 14.2406 121.51 12.7704 122.188 11.5129C122.884 10.2554 123.851 9.28815 125.089 8.61105C126.328 7.93395 127.749 7.5954 129.355 7.5954C130.922 7.5954 132.315 7.92428 133.534 8.58203C134.753 9.23978 135.7 10.178 136.378 11.3968C137.074 12.6156 137.422 14.0375 137.422 15.6626ZM132.344 14.3567C132.344 13.5055 132.054 12.8284 131.473 12.3254C130.893 11.8224 130.168 11.5709 129.297 11.5709C128.465 11.5709 127.759 11.8128 127.179 12.2964C126.618 12.78 126.269 13.4668 126.134 14.3567H132.344Z" fill="#6775CC"/>
<path d="M119.396 19.8125V24.0202H116.872C115.072 24.0202 113.67 23.5849 112.664 22.7143C111.658 21.8244 111.155 20.3832 111.155 18.3906V11.9484H109.182V7.82781H111.155V3.88129H116.117V7.82781H119.367V11.9484H116.117V18.4486C116.117 18.9322 116.233 19.2805 116.465 19.4933C116.697 19.7061 117.084 19.8125 117.626 19.8125H119.396Z" fill="#6775CC"/>
<path d="M89.6895 15.8947C89.6895 14.231 89.999 12.7704 90.6181 11.5129C91.2565 10.2554 92.1173 9.28815 93.2007 8.61105C94.2841 7.93395 95.4932 7.5954 96.828 7.5954C97.9694 7.5954 98.9657 7.82755 99.8169 8.29184C100.687 8.75614 101.355 9.36553 101.819 10.12V7.82755H106.781V24.0199H101.819V21.7274C101.336 22.4819 100.658 23.0913 99.7879 23.5556C98.9367 24.0199 97.9404 24.252 96.799 24.252C95.4835 24.252 94.2841 23.9135 93.2007 23.2364C92.1173 22.54 91.2565 21.563 90.6181 20.3055C89.999 19.0287 89.6895 17.5584 89.6895 15.8947ZM101.819 15.9237C101.819 14.6856 101.471 13.7086 100.775 12.9928C100.097 12.2771 99.2656 11.9192 98.2789 11.9192C97.2923 11.9192 96.4508 12.2771 95.7543 12.9928C95.0772 13.6893 94.7387 14.6566 94.7387 15.8947C94.7387 17.1328 95.0772 18.1195 95.7543 18.8546C96.4508 19.5704 97.2923 19.9283 98.2789 19.9283C99.2656 19.9283 100.097 19.5704 100.775 18.8546C101.471 18.1388 101.819 17.1618 101.819 15.9237Z" fill="#6775CC"/>
<path d="M83.2239 10.5261C83.8043 9.63619 84.5297 8.93975 85.4003 8.43676C86.2708 7.91443 87.2381 7.65326 88.3021 7.65326V12.9056H86.9383C85.7001 12.9056 84.7715 13.1765 84.1525 13.7181C83.5334 14.2405 83.2239 15.1691 83.2239 16.5039V24.0197H78.2617V7.82737H83.2239V10.5261Z" fill="#6775CC"/>
<path d="M75.6449 15.6626C75.6449 16.1269 75.6159 16.6105 75.5579 17.1135H64.3277C64.4051 18.1195 64.7243 18.8933 65.2853 19.435C65.8657 19.9573 66.5718 20.2185 67.4037 20.2185C68.6418 20.2185 69.5027 19.6961 69.9863 18.6515H75.2677C74.9968 19.7155 74.5035 20.6731 73.7877 21.5243C73.0913 22.3755 72.2111 23.0429 71.147 23.5266C70.083 24.0102 68.8933 24.252 67.5778 24.252C65.9914 24.252 64.5792 23.9135 63.3411 23.2364C62.1029 22.5593 61.1356 21.592 60.4392 20.3345C59.7428 19.0771 59.3945 17.6068 59.3945 15.9237C59.3945 14.2406 59.7331 12.7704 60.4102 11.5129C61.1066 10.2554 62.0739 9.28815 63.312 8.61105C64.5502 7.93395 65.9721 7.5954 67.5778 7.5954C69.1448 7.5954 70.5377 7.92428 71.7564 8.58203C72.9752 9.23978 73.9231 10.178 74.6002 11.3968C75.2967 12.6156 75.6449 14.0375 75.6449 15.6626ZM70.5667 14.3567C70.5667 13.5055 70.2765 12.8284 69.6961 12.3254C69.1157 11.8224 68.3903 11.5709 67.5197 11.5709C66.6879 11.5709 65.9817 11.8128 65.4014 12.2964C64.8403 12.78 64.4921 13.4668 64.3567 14.3567H70.5667Z" fill="#6775CC"/>
<path d="M50.6925 7.65326C52.5884 7.65326 54.0974 8.27232 55.2194 9.51045C56.3608 10.7292 56.9315 12.4123 56.9315 14.5597V24.0197H51.9984V15.2271C51.9984 14.1437 51.7178 13.3022 51.1568 12.7025C50.5958 12.1028 49.8413 11.8029 48.8934 11.8029C47.9454 11.8029 47.191 12.1028 46.6299 12.7025C46.0689 13.3022 45.7884 14.1437 45.7884 15.2271V24.0197H40.8262V7.82737H45.7884V9.97474C46.2914 9.25895 46.9685 8.69793 47.8197 8.29167C48.6709 7.86606 49.6285 7.65326 50.6925 7.65326Z" fill="#6775CC"/>
<path d="M38.2094 15.6626C38.2094 16.1269 38.1804 16.6105 38.1223 17.1135H26.8921C26.9695 18.1195 27.2887 18.8933 27.8497 19.435C28.4301 19.9573 29.1362 20.2185 29.9681 20.2185C31.2062 20.2185 32.0671 19.6961 32.5508 18.6515H37.8321C37.5613 19.7155 37.068 20.6731 36.3522 21.5243C35.6557 22.3755 34.7755 23.0429 33.7115 23.5266C32.6475 24.0102 31.4577 24.252 30.1422 24.252C28.5559 24.252 27.1436 23.9135 25.9055 23.2364C24.6674 22.5593 23.7001 21.592 23.0037 20.3345C22.3072 19.0771 21.959 17.6068 21.959 15.9237C21.959 14.2406 22.2975 12.7704 22.9746 11.5129C23.6711 10.2554 24.6384 9.28815 25.8765 8.61105C27.1146 7.93395 28.5365 7.5954 30.1422 7.5954C31.7092 7.5954 33.1021 7.92428 34.3209 8.58203C35.5397 9.23978 36.4876 10.178 37.1647 11.3968C37.8611 12.6156 38.2094 14.0375 38.2094 15.6626ZM33.1311 14.3567C33.1311 13.5055 32.8409 12.8284 32.2606 12.3254C31.6802 11.8224 30.9547 11.5709 30.0842 11.5709C29.2523 11.5709 28.5462 11.8128 27.9658 12.2964C27.4048 12.78 27.0566 13.4668 26.9212 14.3567H33.1311Z" fill="#6775CC"/>
<path d="M14.3642 10.091C13.9966 9.41385 13.4646 8.90119 12.7682 8.55297C12.0911 8.1854 11.2882 8.00162 10.3596 8.00162C8.75393 8.00162 7.46744 8.53362 6.50015 9.59764C5.53287 10.6423 5.04923 12.0449 5.04923 13.8053C5.04923 15.6819 5.55222 17.1521 6.55819 18.2161C7.58351 19.2608 8.98608 19.7831 10.7659 19.7831C11.9847 19.7831 13.01 19.4736 13.8418 18.8546C14.6931 18.2355 15.3121 17.3456 15.699 16.1848H9.40201V12.5285H20.1969V17.1425C19.8293 18.3806 19.2006 19.5317 18.3107 20.5957C17.4401 21.6597 16.3278 22.5206 14.9736 23.1783C13.6194 23.8361 12.0911 24.1649 10.3886 24.1649C8.37669 24.1649 6.57754 23.7297 4.99119 22.8591C3.42419 21.9692 2.19574 20.7408 1.30583 19.1738C0.435278 17.6068 0 15.8173 0 13.8053C0 11.7934 0.435278 10.0039 1.30583 8.4369C2.19574 6.85055 3.42419 5.6221 4.99119 4.75154C6.55819 3.86164 8.34767 3.41669 10.3596 3.41669C12.7972 3.41669 14.8478 4.00673 16.5116 5.18682C18.1946 6.36691 19.307 8.00162 19.8487 10.091H14.3642Z" fill="#6775CC"/>
</svg>
