<svg width="54" height="79" viewBox="0 0 54 79" fill="none" xmlns="http://www.w3.org/2000/svg">
<path d="M2 14L11.2487 4.80419C12.8089 3.25289 15.3291 3.25289 16.8893 4.8042L20.7314 8.62437C22.2916 10.1757 24.8118 10.1757 26.372 8.62438L30.2142 4.8042C31.7744 3.25289 34.2946 3.25289 35.8548 4.8042L39.6969 8.62437C41.2571 10.1757 43.7773 10.1757 45.3376 8.62438L52 2" stroke="#1900B7" stroke-width="4" stroke-linecap="round"/>
<path d="M2 35L11.2487 25.8042C12.8089 24.2529 15.3291 24.2529 16.8893 25.8042L20.7314 29.6244C22.2916 31.1757 24.8118 31.1757 26.372 29.6244L30.2142 25.8042C31.7744 24.2529 34.2946 24.2529 35.8548 25.8042L39.6969 29.6244C41.2571 31.1757 43.7773 31.1757 45.3376 29.6244L52 23" stroke="#1900B7" stroke-width="4" stroke-linecap="round"/>
<path d="M2 56L11.2487 46.8042C12.8089 45.2529 15.3291 45.2529 16.8893 46.8042L20.7314 50.6244C22.2916 52.1757 24.8118 52.1757 26.372 50.6244L30.2142 46.8042C31.7744 45.2529 34.2946 45.2529 35.8548 46.8042L39.6969 50.6244C41.2571 52.1757 43.7773 52.1757 45.3376 50.6244L52 44" stroke="#1900B7" stroke-width="4" stroke-linecap="round"/>
<path d="M2 77L11.2487 67.8042C12.8089 66.2529 15.3291 66.2529 16.8893 67.8042L20.7314 71.6244C22.2916 73.1757 24.8118 73.1757 26.372 71.6244L30.2142 67.8042C31.7744 66.2529 34.2946 66.2529 35.8548 67.8042L39.6969 71.6244C41.2571 73.1757 43.7773 73.1757 45.3376 71.6244L52 65" stroke="#1900B7" stroke-width="4" stroke-linecap="round"/>
</svg>
