<svg width="337" height="367" viewBox="0 0 337 367" fill="none" xmlns="http://www.w3.org/2000/svg">
<path d="M223.242 294.488H217.385V294.672H223.242V294.488Z" fill="#EBEBEB"/>
<path d="M74.7391 286.913H70.4727V287.097H74.7391V286.913Z" fill="#EBEBEB"/>
<path d="M151.752 290.011H88.6113V290.194H151.752V290.011Z" fill="#EBEBEB"/>
<path d="M105.494 214.709L96.1592 223.209L109.457 244.26L120.079 237.801C125.773 243.756 132.448 248.488 139.753 251.747L138.675 264.908L161.76 269.539L165.069 256.826C172.95 256.63 180.725 254.812 187.985 251.468L195.79 261.634L215.12 247.152L209.202 235.614C214.672 229.417 219.017 222.15 222.008 214.196L234.087 215.37L238.353 190.245L226.679 186.634C226.495 178.052 224.825 169.586 221.759 161.678L231.094 153.178L217.796 132.134L207.167 138.586C201.475 132.632 194.803 127.9 187.5 124.64L188.578 111.48L165.507 106.841L162.198 119.546C154.318 119.75 146.544 121.568 139.282 124.905L131.43 114.695L112.113 129.184L118.037 140.752C112.569 146.953 108.225 154.222 105.231 162.177L93.1464 161.003L88.8867 186.127L100.554 189.731C100.741 198.322 102.417 206.797 105.494 214.709ZM132.393 181.878C133.535 175.151 136.483 168.944 140.864 164.042C145.245 159.14 150.862 155.763 157.005 154.337C163.149 152.912 169.543 153.503 175.378 156.034C181.213 158.566 186.228 162.925 189.788 168.561C193.348 174.197 195.294 180.855 195.379 187.695C195.464 194.535 193.685 201.249 190.267 206.988C186.848 212.726 181.944 217.232 176.174 219.935C170.404 222.638 164.027 223.418 157.85 222.174C149.568 220.507 142.233 215.325 137.458 207.768C132.684 200.211 130.862 190.898 132.393 181.878Z" fill="white"/>
<path d="M261.094 201.725L268.387 203.193L269.432 199.178C271.925 199.113 274.386 198.538 276.684 197.483L279.151 200.698L285.264 196.117L283.39 192.447C285.119 190.49 286.491 188.194 287.434 185.68L291.256 186.047L292.604 178.112L288.91 176.967C288.855 174.251 288.327 171.571 287.353 169.069L290.306 166.383L286.1 159.733L282.73 161.774C280.93 159.895 278.822 158.401 276.516 157.37L276.853 153.215L269.56 151.747L268.515 155.762C266.022 155.828 263.562 156.403 261.263 157.458L258.816 154.243L252.703 158.823L254.577 162.493C252.848 164.45 251.476 166.746 250.533 169.26L246.711 168.893L245.363 176.828L249.05 177.973C249.108 180.689 249.636 183.368 250.607 185.871L247.655 188.557L251.861 195.207L255.231 193.167C257.03 195.05 259.141 196.544 261.452 197.571L261.094 201.725ZM259.106 175.485C259.466 173.357 260.397 171.393 261.782 169.842C263.167 168.291 264.943 167.222 266.886 166.77C268.829 166.319 270.851 166.505 272.697 167.305C274.543 168.105 276.129 169.483 277.255 171.266C278.382 173.048 278.997 175.154 279.024 177.317C279.051 179.481 278.488 181.604 277.407 183.419C276.326 185.234 274.774 186.659 272.949 187.513C271.124 188.368 269.107 188.614 267.154 188.22C264.537 187.69 262.221 186.052 260.712 183.664C259.203 181.277 258.626 178.335 259.106 175.485Z" fill="white"/>
<path d="M56.4147 224.34L61.9684 225.463L62.7705 222.402C64.6683 222.35 66.5404 221.912 68.2906 221.11L70.171 223.555L74.8284 220.068L73.3995 217.264C74.7139 215.778 75.7589 214.035 76.4797 212.126L79.3913 212.405L80.4158 206.357L77.6052 205.52C77.5634 203.45 77.1609 201.408 76.419 199.502L78.6702 197.454L75.4619 192.389L72.9075 193.945C71.5412 192.514 69.941 191.374 68.1895 190.583L68.4523 187.42L62.8918 186.297L62.0965 189.358C60.1965 189.41 58.3222 189.848 56.5697 190.649L54.696 188.205L50.0386 191.692L51.4675 194.481C50.1524 195.967 49.1073 197.71 48.3873 199.619L45.4757 199.34L44.4512 205.388L47.2415 206.254C47.2834 208.324 47.6859 210.367 48.4278 212.273L46.1766 214.328L49.3781 219.393L51.9393 217.844C53.3065 219.273 54.9066 220.41 56.6573 221.199L56.4147 224.34ZM54.9049 204.353C55.1806 202.735 55.8907 201.242 56.9455 200.063C58.0002 198.884 59.3522 198.072 60.8306 197.73C62.309 197.388 63.8474 197.531 65.2513 198.14C66.6551 198.75 67.8615 199.799 68.7178 201.156C69.5742 202.512 70.042 204.114 70.0623 205.76C70.0826 207.406 69.6543 209.021 68.8316 210.402C68.009 211.783 66.8289 212.867 65.4405 213.518C64.0522 214.168 62.5179 214.356 61.0316 214.057C59.038 213.654 57.2729 212.405 56.1241 210.586C54.9753 208.766 54.5368 206.525 54.9049 204.353Z" fill="white"/>
<path d="M155.593 89.5483L159.799 90.3924L160.412 88.0803C161.852 88.0489 163.272 87.7175 164.598 87.104L166.02 88.9611L169.538 86.3187L168.46 84.2121C169.455 83.0814 170.246 81.7567 170.792 80.3072L172.989 80.5201L173.764 75.9472L171.641 75.2866C171.606 73.7221 171.301 72.1785 170.744 70.7358L172.443 69.1871L170.023 65.3556L168.089 66.53C167.051 65.4459 165.834 64.5843 164.503 63.9904L164.699 61.5975L160.493 60.7461L159.893 63.0655C158.456 63.0962 157.037 63.4277 155.714 64.0418L154.292 62.1847L150.767 64.8271L151.852 66.9337C150.855 68.0627 150.063 69.3879 149.52 70.8386L147.316 70.6257L146.541 75.1986L148.664 75.8592C148.698 77.4239 149.002 78.9677 149.561 80.41L147.862 81.9587L150.289 85.7902L152.223 84.6158C153.258 85.7009 154.472 86.5627 155.802 87.1554L155.593 89.5483ZM154.454 74.4205C154.662 73.1959 155.199 72.0661 155.997 71.1738C156.795 70.2816 157.817 69.6669 158.936 69.4076C160.054 69.1483 161.218 69.256 162.281 69.717C163.343 70.178 164.256 70.9717 164.904 71.9977C165.553 73.0237 165.907 74.236 165.922 75.4812C165.938 76.7265 165.614 77.9489 164.992 78.9938C164.37 80.0387 163.477 80.8593 162.427 81.3517C161.376 81.8442 160.216 81.9864 159.091 81.7605C157.585 81.4572 156.251 80.5156 155.381 79.1422C154.512 77.7689 154.178 76.0761 154.454 74.4352V74.4205Z" fill="white"/>
<path d="M225.446 126.388L228.25 126.945L228.648 125.404C229.607 125.379 230.554 125.157 231.438 124.751L232.388 125.991L234.734 124.23L234.013 122.82C234.677 122.069 235.206 121.187 235.57 120.222L237.039 120.361L237.558 117.308L236.136 116.868C236.115 115.825 235.913 114.797 235.543 113.836L236.675 112.801L235.057 110.247L233.77 111.032C233.076 110.31 232.265 109.735 231.377 109.337L231.506 107.737L228.702 107.171L228.304 108.72C227.345 108.742 226.398 108.962 225.514 109.366L224.563 108.133L222.218 109.895L222.939 111.296C222.276 112.052 221.748 112.936 221.382 113.902L219.913 113.763L219.4 116.809L220.816 117.249C220.835 118.295 221.039 119.326 221.416 120.288L220.277 121.316L221.894 123.877L223.188 123.092C223.879 123.816 224.688 124.391 225.574 124.787L225.446 126.388ZM224.685 116.295C224.823 115.477 225.181 114.721 225.713 114.124C226.246 113.528 226.929 113.116 227.676 112.943C228.423 112.769 229.201 112.84 229.911 113.148C230.621 113.456 231.231 113.986 231.664 114.671C232.098 115.357 232.334 116.167 232.345 116.999C232.355 117.831 232.138 118.648 231.722 119.346C231.306 120.044 230.709 120.591 230.007 120.92C229.305 121.248 228.53 121.343 227.778 121.191C226.772 120.987 225.882 120.358 225.301 119.44C224.721 118.522 224.5 117.391 224.685 116.295Z" fill="white"/>
<path d="M96.2141 89.5994L99.018 90.1646L99.4156 88.6232C100.375 88.5947 101.321 88.3732 102.206 87.9699L103.156 89.203L105.502 87.4414L104.781 86.0395C105.445 85.2851 105.974 84.4011 106.338 83.4338L107.807 83.5806L108.326 80.5272L106.904 80.0868C106.883 79.0423 106.681 78.0115 106.311 77.048L107.443 76.0204L105.825 73.4587L104.531 74.2441C103.843 73.5202 103.033 72.9471 102.145 72.5559L102.273 70.9558L99.4695 70.3906L99.0786 71.932C98.1191 71.9569 97.1724 72.1785 96.2883 72.5853L95.3379 71.3522L93.0126 73.1064L93.7338 74.5157C93.0692 75.2701 92.541 76.1541 92.1769 77.1214L90.7075 76.9746L90.1953 80.028L91.6107 80.4684C91.6303 81.5115 91.8339 82.5406 92.2106 83.4999L91.0715 84.5348L92.6891 87.0965L93.9832 86.3111C94.6738 87.0325 95.4833 87.6052 96.3691 87.9993L96.2141 89.5994ZM95.4525 79.5142C95.5907 78.6958 95.9487 77.9405 96.4812 77.3437C97.0137 76.7469 97.6968 76.3356 98.4441 76.1618C99.1913 75.988 99.9691 76.0594 100.679 76.3672C101.389 76.6749 101.999 77.205 102.432 77.8905C102.866 78.576 103.102 79.3861 103.113 80.2181C103.123 81.0502 102.906 81.8669 102.49 82.5648C102.074 83.2628 101.477 83.8107 100.775 84.1391C100.073 84.4676 99.2975 84.5619 98.5462 84.41C97.5402 84.2067 96.6494 83.577 96.0694 82.6591C95.4893 81.7412 95.2675 80.6101 95.4525 79.5142Z" fill="white"/>
<path d="M220.817 252.32C220.853 254.143 221.207 255.941 221.862 257.619L219.88 259.425L222.704 263.88L224.955 262.515C226.165 263.77 227.58 264.766 229.127 265.451L228.898 268.24L233.791 269.224L234.465 266.53C236.136 266.483 237.784 266.097 239.325 265.393L240.983 267.543L245.081 264.475L243.854 262.038C245.008 260.722 245.922 259.181 246.55 257.495L249.111 257.744L250.055 252.423L247.581 251.689C247.546 249.866 247.191 248.067 246.537 246.389L248.518 244.591L245.701 240.128L243.416 241.486C242.211 240.229 240.798 239.232 239.251 238.55L239.473 235.754L234.587 234.77L233.913 237.464C232.24 237.511 230.59 237.897 229.046 238.602L227.388 236.451L223.29 239.519L224.551 241.971C223.398 243.287 222.483 244.828 221.855 246.514L219.294 246.264L218.377 251.557L220.817 252.32ZM227.557 250.661C227.797 249.232 228.421 247.913 229.35 246.87C230.28 245.828 231.472 245.109 232.777 244.805C234.081 244.501 235.439 244.625 236.679 245.163C237.918 245.7 238.984 246.626 239.74 247.823C240.496 249.02 240.909 250.434 240.926 251.887C240.944 253.34 240.565 254.765 239.837 255.983C239.11 257.201 238.067 258.157 236.841 258.729C235.615 259.301 234.26 259.464 232.949 259.198C231.197 258.839 229.647 257.74 228.638 256.14C227.629 254.54 227.242 252.57 227.564 250.661H227.557Z" fill="white"/>
<path d="M263.149 220.714L255.621 223.716L263.149 226.696V229.742L252.365 225.286V222.086L263.149 217.631V220.714Z" fill="white"/>
<path d="M271.252 211.598H274.4L266.939 234.799H263.791L271.252 211.598Z" fill="white"/>
<path d="M285.573 222.116V225.338L274.789 229.794V226.718L282.318 223.738L274.789 220.736V217.683L285.573 222.116Z" fill="white"/>
<path d="M76.0542 259.895C77.1326 260.247 77.6313 260.989 77.6313 262.757V266.846C77.5998 267.1 77.6222 267.359 77.6967 267.602C77.7712 267.845 77.8958 268.067 78.061 268.25C78.2263 268.433 78.4278 268.572 78.65 268.657C78.8723 268.742 79.1094 268.77 79.3433 268.74H79.7679V271.859H78.4199C75.4813 271.859 73.9782 270.222 73.9782 267.279V262.655C73.9782 261.833 73.5806 261.451 72.947 261.451H72.1719V258.368H72.947C73.5806 258.368 73.9782 257.986 73.9782 257.164V252.496C73.9782 249.56 75.4813 247.923 78.4199 247.923H79.7679V251.028H79.3433C79.1094 250.998 78.8723 251.026 78.65 251.111C78.4278 251.196 78.2263 251.335 78.061 251.518C77.8958 251.701 77.7712 251.922 77.6967 252.166C77.6222 252.409 77.5998 252.668 77.6313 252.922V257.01C77.6313 258.794 77.1326 259.535 76.0542 259.895Z" fill="white"/>
<path d="M94.7384 258.368V261.488H93.9633C93.8178 261.474 93.6713 261.496 93.5348 261.552C93.3983 261.609 93.2755 261.699 93.1755 261.815C93.0755 261.931 93.001 262.07 92.9577 262.222C92.9144 262.374 92.9033 262.534 92.9253 262.691V267.316C92.9253 270.252 91.4223 271.896 88.4904 271.896H87.1424V268.776H87.567C87.8009 268.807 88.038 268.778 88.2603 268.693C88.4825 268.608 88.684 268.469 88.8492 268.286C89.0145 268.104 89.1391 267.882 89.2136 267.639C89.2881 267.395 89.3104 267.137 89.279 266.883V262.772C89.279 261.003 89.771 260.262 90.8494 259.91C89.771 259.55 89.279 258.809 89.279 257.04V252.937C89.3132 252.68 89.2924 252.418 89.2182 252.172C89.144 251.925 89.0184 251.701 88.8513 251.516C88.6842 251.331 88.4801 251.191 88.255 251.106C88.0298 251.022 87.7897 250.995 87.5535 251.028H87.1289V247.909H88.4769C91.4088 247.909 92.9118 249.546 92.9118 252.482V257.113C92.8898 257.27 92.9009 257.431 92.9442 257.583C92.9876 257.735 93.062 257.874 93.162 257.99C93.262 258.106 93.3849 258.195 93.5213 258.252C93.6578 258.309 93.8043 258.331 93.9498 258.317L94.7384 258.368Z" fill="white"/>
<path d="M66.3828 110.929C66.3828 105.894 69.9281 102.298 74.7 102.298C75.8854 102.24 77.0676 102.474 78.1586 102.982C79.2496 103.491 80.2214 104.26 81.0019 105.234L78.7238 107.516C78.2565 106.899 77.6684 106.403 77.0025 106.066C76.3366 105.728 75.6098 105.556 74.8752 105.564C74.216 105.537 73.5586 105.656 72.9424 105.912C72.3262 106.168 71.7637 106.557 71.2887 107.056C70.8137 107.554 70.4358 108.152 70.1778 108.813C69.9197 109.474 69.7867 110.185 69.7867 110.904C69.7867 111.622 69.9197 112.333 70.1778 112.994C70.4358 113.655 70.8137 114.253 71.2887 114.752C71.7637 115.25 72.3262 115.639 72.9424 115.895C73.5586 116.152 74.216 116.27 74.8752 116.244C75.6127 116.252 76.3423 116.079 77.009 115.735C77.6758 115.392 78.2621 114.888 78.7238 114.262L81.0019 116.552C80.2248 117.538 79.2517 118.319 78.1563 118.836C77.061 119.352 75.8721 119.59 74.6798 119.532C69.9281 119.554 66.3828 115.972 66.3828 110.929Z" fill="white"/>
<path d="M93.2219 112.383H89.4138V116.434H86.5897V112.383H82.8086V109.447H86.5897V105.388H89.4138V109.447H93.2219V112.383Z" fill="white"/>
<path d="M106.492 112.383H102.684V116.434H99.8602V112.383H96.0723V109.447H99.8602V105.388H102.684V109.447H106.492V112.383Z" fill="white"/>
<path d="M113 67.3535L115.211 64.4616C116.148 65.8268 117.186 66.5241 118.412 66.5241C120.016 66.5241 120.852 65.4745 120.852 63.4119V54.4865H114.786V51H124.808V63.1697C124.808 67.8086 122.665 70.0913 118.601 70.0913C117.537 70.1349 116.478 69.9105 115.507 69.4356C114.535 68.9608 113.677 68.2483 113 67.3535Z" fill="white"/>
<path d="M127.207 68.4253L128.461 65.4233C129.854 66.3268 131.443 66.8083 133.064 66.8179C134.837 66.8179 135.504 66.3114 135.504 65.504C135.504 63.1479 127.504 65.5554 127.504 59.7935C127.504 57.0557 129.768 55.1253 133.63 55.1253C135.4 55.0881 137.151 55.5214 138.732 56.3877L137.452 59.3678C136.287 58.6486 134.969 58.2764 133.63 58.2888C131.912 58.2888 131.17 58.8833 131.17 59.632C131.17 62.0983 139.171 59.7127 139.171 65.3939C139.171 68.0803 136.886 69.9814 132.916 69.9814C130.92 70.0183 128.951 69.4816 127.207 68.4253Z" fill="white"/>
<path d="M168.5 313.829C240.674 313.829 299.182 310.109 299.182 305.52C299.182 300.931 240.674 297.211 168.5 297.211C96.3264 297.211 37.8181 300.931 37.8181 305.52C37.8181 310.109 96.3264 313.829 168.5 313.829Z" fill="#F5F5F5"/>
<path d="M219.677 68.2695H199.571C198.726 68.2695 198.041 69.0155 198.041 69.9357V91.8309C198.041 92.7511 198.726 93.4971 199.571 93.4971H219.677C220.522 93.4971 221.207 92.7511 221.207 91.8309V69.9357C221.207 69.0155 220.522 68.2695 219.677 68.2695Z" fill="#090047"/>
<g opacity="0.4">
<path d="M219.677 68.2695H199.571C198.726 68.2695 198.041 69.0155 198.041 69.9357V91.8309C198.041 92.7511 198.726 93.4971 199.571 93.4971H219.677C220.522 93.4971 221.207 92.7511 221.207 91.8309V69.9357C221.207 69.0155 220.522 68.2695 219.677 68.2695Z" fill="#090047"/>
</g>
<path d="M206.514 79.5513L202.47 81.1588L206.514 82.7516V84.4104L200.771 82.0249V80.322L206.514 77.9365V79.5513Z" fill="white"/>
<path d="M210.84 74.6924H212.518L208.528 87.075H206.85L210.84 74.6924Z" fill="white"/>
<path d="M218.477 80.3073V82.0102L212.734 84.4104V82.7662L216.778 81.1735L212.734 79.566V77.9365L218.477 80.3073Z" fill="white"/>
<path d="M203.143 98.1065V104.228H201.842V101.71H199.281V104.228H197.98V98.0991H199.281V100.558H201.842V98.1432L203.143 98.1065Z" fill="#263238"/>
<path d="M205.65 99.2588H203.844V98.1064H208.75V99.2588H206.951V104.228H205.65V99.2588Z" fill="#263238"/>
<path d="M214.58 104.229V100.559L212.922 103.59H212.309L210.657 100.654V104.229H209.438V98.0996H210.516L212.619 101.909L214.695 98.0996H215.766V104.229H214.58Z" fill="#263238"/>
<path d="M217.143 98.1064H218.443V103.076H221.267V104.228H217.143V98.1064Z" fill="#263238"/>
<g opacity="0.6">
<path d="M203.143 98.1065V104.228H201.842V101.71H199.281V104.228H197.98V98.0991H199.281V100.558H201.842V98.1432L203.143 98.1065Z" fill="white"/>
<path d="M205.65 99.2588H203.844V98.1064H208.75V99.2588H206.951V104.228H205.65V99.2588Z" fill="white"/>
<path d="M214.58 104.228V100.558L212.922 103.589H212.309L210.657 100.653V104.228H209.438V98.0991H210.516L212.619 101.909L214.695 98.0991H215.766V104.228H214.58Z" fill="white"/>
<path d="M217.143 98.1064H218.443V103.076H221.267V104.228H217.143V98.1064Z" fill="white"/>
</g>
<path d="M269.221 81.7163H249.116C248.271 81.7163 247.586 82.4623 247.586 83.3825V105.278C247.586 106.198 248.271 106.944 249.116 106.944H269.221C270.066 106.944 270.751 106.198 270.751 105.278V83.3825C270.751 82.4623 270.066 81.7163 269.221 81.7163Z" fill="#090047"/>
<g opacity="0.4">
<path d="M269.221 81.7163H249.116C248.271 81.7163 247.586 82.4623 247.586 83.3825V105.278C247.586 106.198 248.271 106.944 249.116 106.944H269.221C270.066 106.944 270.751 106.198 270.751 105.278V83.3825C270.751 82.4623 270.066 81.7163 269.221 81.7163Z" fill="#090047"/>
</g>
<path d="M255.371 94.3262C255.924 94.5097 256.18 94.8914 256.18 95.7942V97.9008C256.165 98.0313 256.177 98.1639 256.216 98.2885C256.255 98.4131 256.32 98.5263 256.405 98.6197C256.49 98.7131 256.593 98.7842 256.707 98.8275C256.821 98.8708 256.943 98.8852 257.063 98.8697H257.279V100.477H256.605C255.095 100.477 254.327 99.633 254.327 98.121V95.7428C254.337 95.6624 254.331 95.5805 254.308 95.5031C254.285 95.4257 254.247 95.3549 254.196 95.2957C254.145 95.2366 254.082 95.1906 254.013 95.1613C253.943 95.132 253.868 95.12 253.794 95.1263H253.396V93.5188H253.794C253.868 93.5251 253.943 93.5131 254.013 93.4838C254.082 93.4545 254.145 93.4086 254.196 93.3494C254.247 93.2902 254.285 93.2194 254.308 93.142C254.331 93.0646 254.337 92.9827 254.327 92.9023V90.5241C254.327 89.0121 255.095 88.168 256.605 88.168H257.279V89.7754H257.063C256.943 89.7599 256.821 89.7743 256.707 89.8176C256.593 89.8609 256.49 89.932 256.405 90.0254C256.32 90.1188 256.255 90.232 256.216 90.3566C256.177 90.4812 256.165 90.6138 256.18 90.7443V92.8509C256.18 93.761 255.924 94.1427 255.371 94.3262Z" fill="white"/>
<path d="M264.97 93.5261V95.1336H264.572C264.498 95.1273 264.423 95.1393 264.354 95.1686C264.284 95.1979 264.222 95.2439 264.171 95.303C264.12 95.3622 264.081 95.4331 264.059 95.5104C264.036 95.5878 264.03 95.6697 264.04 95.7502V98.1283C264.04 99.6404 263.265 100.484 261.762 100.484H261.088V98.877H261.304C261.424 98.8925 261.545 98.8781 261.659 98.8348C261.773 98.7915 261.877 98.7204 261.962 98.627C262.047 98.5337 262.112 98.4204 262.15 98.2958C262.189 98.1712 262.202 98.0387 262.187 97.9081V95.8015C262.187 94.8914 262.436 94.5097 262.995 94.3335C262.436 94.15 262.187 93.7684 262.187 92.8655V90.759C262.202 90.6284 262.189 90.4958 262.15 90.3713C262.112 90.2467 262.047 90.1334 261.962 90.04C261.877 89.9466 261.773 89.8756 261.659 89.8323C261.545 89.789 261.424 89.7745 261.304 89.7901H261.088V88.1826H261.762C263.265 88.1826 264.04 89.0267 264.04 90.5388V92.9169C264.03 92.9973 264.036 93.0793 264.059 93.1566C264.081 93.234 264.12 93.3049 264.171 93.3641C264.222 93.4232 264.284 93.4691 264.354 93.4985C264.423 93.5278 264.498 93.5397 264.572 93.5335L264.97 93.5261Z" fill="white"/>
<path d="M251.402 114.71C251.436 114.045 251.649 113.405 252.015 112.872C252.382 112.338 252.885 111.935 253.461 111.712C254.037 111.489 254.661 111.457 255.254 111.62C255.848 111.782 256.383 112.132 256.794 112.625L255.959 113.469C255.788 113.239 255.573 113.054 255.328 112.926C255.083 112.799 254.815 112.734 254.543 112.735C254.297 112.719 254.051 112.758 253.819 112.849C253.587 112.94 253.375 113.082 253.195 113.266C253.016 113.45 252.873 113.672 252.775 113.918C252.677 114.165 252.627 114.43 252.627 114.699C252.627 114.967 252.677 115.233 252.775 115.479C252.873 115.726 253.016 115.948 253.195 116.132C253.375 116.316 253.587 116.458 253.819 116.549C254.051 116.64 254.297 116.679 254.543 116.662C254.815 116.663 255.083 116.598 255.327 116.471C255.572 116.343 255.788 116.158 255.959 115.928L256.794 116.765C256.385 117.262 255.85 117.615 255.256 117.779C254.663 117.944 254.038 117.913 253.46 117.691C252.883 117.469 252.379 117.064 252.013 116.53C251.646 115.995 251.434 115.354 251.402 114.688V114.71Z" fill="#263238"/>
<path d="M257.145 117.176L257.583 116.104C258.131 116.512 258.779 116.734 259.443 116.743C260.211 116.743 260.528 116.464 260.528 116.089C260.528 114.937 257.252 115.73 257.252 113.454C257.252 112.412 258.027 111.539 259.625 111.539C260.309 111.526 260.984 111.714 261.579 112.082L261.182 113.161C260.707 112.858 260.168 112.694 259.618 112.684C258.85 112.684 258.546 112.992 258.546 113.381C258.546 114.511 261.822 113.733 261.822 115.979C261.822 117.007 261.04 117.88 259.436 117.88C258.625 117.901 257.826 117.656 257.145 117.176Z" fill="#263238"/>
<path d="M262.273 117.176L262.718 116.105C263.265 116.516 263.914 116.738 264.578 116.743C265.347 116.743 265.664 116.464 265.664 116.09C265.664 114.937 262.388 115.73 262.388 113.455C262.388 112.413 263.163 111.539 264.76 111.539C265.445 111.528 266.119 111.715 266.715 112.082L266.311 113.161C265.838 112.858 265.302 112.693 264.754 112.684C263.979 112.684 263.682 112.992 263.682 113.381C263.682 114.512 266.958 113.734 266.958 115.98C266.958 117.007 266.176 117.881 264.565 117.881C263.753 117.902 262.955 117.656 262.273 117.176Z" fill="#263238"/>
<g opacity="0.6">
<path d="M251.402 114.71C251.436 114.045 251.649 113.405 252.015 112.872C252.382 112.338 252.885 111.935 253.461 111.712C254.037 111.489 254.661 111.457 255.254 111.62C255.848 111.782 256.383 112.132 256.794 112.625L255.959 113.469C255.788 113.239 255.573 113.054 255.328 112.926C255.083 112.799 254.815 112.734 254.543 112.735C254.297 112.719 254.051 112.758 253.819 112.849C253.587 112.94 253.375 113.082 253.195 113.266C253.016 113.45 252.873 113.672 252.775 113.918C252.677 114.165 252.627 114.43 252.627 114.699C252.627 114.967 252.677 115.233 252.775 115.479C252.873 115.726 253.016 115.948 253.195 116.132C253.375 116.316 253.587 116.458 253.819 116.549C254.051 116.64 254.297 116.679 254.543 116.662C254.815 116.663 255.083 116.598 255.327 116.471C255.572 116.343 255.788 116.158 255.959 115.928L256.794 116.765C256.385 117.262 255.85 117.615 255.256 117.779C254.663 117.944 254.038 117.913 253.46 117.691C252.883 117.469 252.379 117.064 252.013 116.53C251.646 115.995 251.434 115.354 251.402 114.688V114.71Z" fill="white"/>
<path d="M257.145 117.176L257.583 116.104C258.131 116.512 258.779 116.734 259.443 116.743C260.211 116.743 260.528 116.464 260.528 116.089C260.528 114.937 257.252 115.73 257.252 113.454C257.252 112.412 258.027 111.539 259.625 111.539C260.309 111.526 260.984 111.714 261.579 112.082L261.182 113.161C260.707 112.858 260.168 112.694 259.618 112.684C258.85 112.684 258.546 112.992 258.546 113.381C258.546 114.511 261.822 113.733 261.822 115.979C261.822 117.007 261.04 117.88 259.436 117.88C258.625 117.901 257.826 117.656 257.145 117.176Z" fill="white"/>
<path d="M262.273 117.176L262.718 116.105C263.266 116.516 263.914 116.738 264.579 116.743C265.347 116.743 265.664 116.464 265.664 116.09C265.664 114.937 262.388 115.73 262.388 113.455C262.388 112.413 263.163 111.539 264.76 111.539C265.445 111.528 266.119 111.715 266.715 112.082L266.311 113.161C265.838 112.858 265.302 112.693 264.754 112.684C263.979 112.684 263.682 112.992 263.682 113.381C263.682 114.512 266.958 113.734 266.958 115.98C266.958 117.007 266.176 117.881 264.565 117.881C263.754 117.902 262.955 117.656 262.273 117.176Z" fill="white"/>
</g>
<path d="M182.695 79.2573H100.123V144.348H182.695V79.2573Z" fill="black"/>
<path opacity="0.9" d="M182.695 79.2573H100.123V144.348H182.695V79.2573Z" fill="white"/>
<path opacity="0.1" d="M111.621 79.2573H100.123V144.348H111.621V79.2573Z" fill="black"/>
<path d="M182.695 79.2573H100.123V85.3422H182.695V79.2573Z" fill="#090047"/>
<g opacity="0.2">
<path d="M133.258 94.5246H118.221C118.042 94.5246 117.871 94.4473 117.744 94.3097C117.618 94.172 117.547 93.9853 117.547 93.7906C117.547 93.596 117.618 93.4093 117.744 93.2716C117.871 93.134 118.042 93.0566 118.221 93.0566H133.258C133.437 93.0566 133.608 93.134 133.734 93.2716C133.861 93.4093 133.932 93.596 133.932 93.7906C133.932 93.9853 133.861 94.172 133.734 94.3097C133.608 94.4473 133.437 94.5246 133.258 94.5246Z" fill="black"/>
<path d="M166.48 94.5246H137.262C137.083 94.5246 136.912 94.4473 136.785 94.3097C136.659 94.172 136.588 93.9853 136.588 93.7906C136.588 93.596 136.659 93.4093 136.785 93.2716C136.912 93.134 137.083 93.0566 137.262 93.0566H166.48C166.659 93.0566 166.83 93.134 166.956 93.2716C167.083 93.4093 167.154 93.596 167.154 93.7906C167.154 93.9853 167.083 94.172 166.956 94.3097C166.83 94.4473 166.659 94.5246 166.48 94.5246Z" fill="black"/>
<path d="M159.523 99.3176H120.242C120.064 99.3176 119.892 99.2403 119.766 99.1026C119.639 98.965 119.568 98.7783 119.568 98.5836C119.568 98.3889 119.639 98.2022 119.766 98.0646C119.892 97.9269 120.064 97.8496 120.242 97.8496H159.523C159.702 97.8496 159.873 97.9269 160 98.0646C160.126 98.2022 160.197 98.3889 160.197 98.5836C160.197 98.7783 160.126 98.965 160 99.1026C159.873 99.2403 159.702 99.3176 159.523 99.3176Z" fill="black"/>
<path d="M143.523 104.103H118.221C118.042 104.103 117.871 104.026 117.744 103.888C117.618 103.751 117.547 103.564 117.547 103.369C117.547 103.175 117.618 102.988 117.744 102.85C117.871 102.713 118.042 102.635 118.221 102.635H143.523C143.702 102.635 143.873 102.713 143.999 102.85C144.126 102.988 144.197 103.175 144.197 103.369C144.197 103.564 144.126 103.751 143.999 103.888C143.873 104.026 143.702 104.103 143.523 104.103Z" fill="black"/>
<path d="M166.478 104.103H148.348C148.169 104.103 147.998 104.026 147.871 103.888C147.745 103.751 147.674 103.564 147.674 103.369C147.674 103.175 147.745 102.988 147.871 102.85C147.998 102.713 148.169 102.635 148.348 102.635H166.478C166.657 102.635 166.829 102.713 166.955 102.85C167.081 102.988 167.152 103.175 167.152 103.369C167.152 103.564 167.081 103.751 166.955 103.888C166.829 104.026 166.657 104.103 166.478 104.103Z" fill="black"/>
<path d="M132.193 108.897H118.221C118.042 108.897 117.871 108.819 117.744 108.682C117.618 108.544 117.547 108.357 117.547 108.163C117.547 107.968 117.618 107.781 117.744 107.644C117.871 107.506 118.042 107.429 118.221 107.429H132.193C132.372 107.429 132.543 107.506 132.669 107.644C132.796 107.781 132.867 107.968 132.867 108.163C132.867 108.357 132.796 108.544 132.669 108.682C132.543 108.819 132.372 108.897 132.193 108.897Z" fill="black"/>
<path d="M158.72 108.897H136.721C136.542 108.897 136.371 108.819 136.244 108.682C136.118 108.544 136.047 108.357 136.047 108.163C136.047 107.968 136.118 107.781 136.244 107.644C136.371 107.506 136.542 107.429 136.721 107.429H158.72C158.899 107.429 159.07 107.506 159.197 107.644C159.323 107.781 159.394 107.968 159.394 108.163C159.394 108.357 159.323 108.544 159.197 108.682C159.07 108.819 158.899 108.897 158.72 108.897Z" fill="black"/>
<path d="M139.04 113.689H120.242C120.064 113.689 119.892 113.612 119.766 113.474C119.639 113.337 119.568 113.15 119.568 112.955C119.568 112.761 119.639 112.574 119.766 112.436C119.892 112.299 120.064 112.221 120.242 112.221H139.04C139.219 112.221 139.391 112.299 139.517 112.436C139.643 112.574 139.714 112.761 139.714 112.955C139.714 113.15 139.643 113.337 139.517 113.474C139.391 113.612 139.219 113.689 139.04 113.689Z" fill="black"/>
<path d="M141.393 118.482H120.242C120.064 118.482 119.892 118.405 119.766 118.267C119.639 118.13 119.568 117.943 119.568 117.748C119.568 117.553 119.639 117.367 119.766 117.229C119.892 117.091 120.064 117.014 120.242 117.014H141.393C141.571 117.014 141.743 117.091 141.869 117.229C141.996 117.367 142.067 117.553 142.067 117.748C142.067 117.943 141.996 118.13 141.869 118.267C141.743 118.405 141.571 118.482 141.393 118.482Z" fill="black"/>
<path d="M166.478 118.483H144.91C144.732 118.483 144.56 118.405 144.434 118.268C144.307 118.13 144.236 117.943 144.236 117.749C144.236 117.554 144.307 117.367 144.434 117.23C144.56 117.092 144.732 117.015 144.91 117.015H166.478C166.657 117.015 166.829 117.092 166.955 117.23C167.081 117.367 167.152 117.554 167.152 117.749C167.152 117.943 167.081 118.13 166.955 118.268C166.829 118.405 166.657 118.483 166.478 118.483Z" fill="black"/>
<path d="M130.326 123.268H118.194C118.015 123.268 117.843 123.191 117.717 123.053C117.591 122.916 117.52 122.729 117.52 122.534C117.52 122.34 117.591 122.153 117.717 122.015C117.843 121.878 118.015 121.8 118.194 121.8H130.326C130.504 121.8 130.676 121.878 130.802 122.015C130.929 122.153 131 122.34 131 122.534C131 122.729 130.929 122.916 130.802 123.053C130.676 123.191 130.504 123.268 130.326 123.268Z" fill="black"/>
<path d="M166.479 123.268H134.457C134.278 123.268 134.107 123.191 133.981 123.053C133.854 122.916 133.783 122.729 133.783 122.534C133.783 122.34 133.854 122.153 133.981 122.015C134.107 121.878 134.278 121.8 134.457 121.8H166.479C166.658 121.8 166.829 121.878 166.955 122.015C167.082 122.153 167.153 122.34 167.153 122.534C167.153 122.729 167.082 122.916 166.955 123.053C166.829 123.191 166.658 123.268 166.479 123.268Z" fill="black"/>
<path d="M141.258 128.061H120.242C120.064 128.061 119.892 127.984 119.766 127.846C119.639 127.709 119.568 127.522 119.568 127.327C119.568 127.133 119.639 126.946 119.766 126.808C119.892 126.671 120.064 126.593 120.242 126.593H141.258C141.437 126.593 141.608 126.671 141.734 126.808C141.861 126.946 141.932 127.133 141.932 127.327C141.932 127.522 141.861 127.709 141.734 127.846C141.608 127.984 141.437 128.061 141.258 128.061Z" fill="black"/>
<path d="M157.791 128.061H144.19C144.011 128.061 143.84 127.984 143.713 127.846C143.587 127.709 143.516 127.522 143.516 127.327C143.516 127.133 143.587 126.946 143.713 126.808C143.84 126.671 144.011 126.593 144.19 126.593H157.791C157.97 126.593 158.141 126.671 158.268 126.808C158.394 126.946 158.465 127.133 158.465 127.327C158.465 127.522 158.394 127.709 158.268 127.846C158.141 127.984 157.97 128.061 157.791 128.061Z" fill="black"/>
<path d="M144.432 132.854H120.242C120.064 132.854 119.892 132.777 119.766 132.639C119.639 132.502 119.568 132.315 119.568 132.12C119.568 131.926 119.639 131.739 119.766 131.601C119.892 131.464 120.064 131.386 120.242 131.386H144.432C144.611 131.386 144.783 131.464 144.909 131.601C145.035 131.739 145.106 131.926 145.106 132.12C145.106 132.315 145.035 132.502 144.909 132.639C144.783 132.777 144.611 132.854 144.432 132.854Z" fill="black"/>
</g>
<path opacity="0.4" d="M179.143 83.5952C179.779 83.5952 180.295 83.0333 180.295 82.3401C180.295 81.6469 179.779 81.085 179.143 81.085C178.506 81.085 177.99 81.6469 177.99 82.3401C177.99 83.0333 178.506 83.5952 179.143 83.5952Z" fill="white"/>
<path opacity="0.4" d="M175.092 83.5952C175.729 83.5952 176.245 83.0333 176.245 82.3401C176.245 81.6469 175.729 81.085 175.092 81.085C174.456 81.085 173.94 81.6469 173.94 82.3401C173.94 83.0333 174.456 83.5952 175.092 83.5952Z" fill="white"/>
<path opacity="0.4" d="M171.049 83.5952C171.686 83.5952 172.202 83.0333 172.202 82.3401C172.202 81.6469 171.686 81.085 171.049 81.085C170.412 81.085 169.896 81.6469 169.896 82.3401C169.896 83.0333 170.412 83.5952 171.049 83.5952Z" fill="white"/>
<g opacity="0.2">
<path d="M106.074 94.5246C105.896 94.5246 105.724 94.4473 105.598 94.3097C105.471 94.172 105.4 93.9853 105.4 93.7906C105.4 93.596 105.471 93.4093 105.598 93.2716C105.724 93.134 105.896 93.0566 106.074 93.0566C106.253 93.0566 106.425 93.134 106.551 93.2716C106.677 93.4093 106.748 93.596 106.748 93.7906C106.748 93.9853 106.677 94.172 106.551 94.3097C106.425 94.4473 106.253 94.5246 106.074 94.5246Z" fill="black"/>
<path d="M106.074 99.3176C105.896 99.3176 105.724 99.2403 105.598 99.1026C105.471 98.965 105.4 98.7783 105.4 98.5836C105.4 98.3889 105.471 98.2022 105.598 98.0646C105.724 97.9269 105.896 97.8496 106.074 97.8496C106.253 97.8496 106.425 97.9269 106.551 98.0646C106.677 98.2022 106.748 98.3889 106.748 98.5836C106.748 98.7783 106.677 98.965 106.551 99.1026C106.425 99.2403 106.253 99.3176 106.074 99.3176Z" fill="black"/>
<path d="M106.074 104.103C105.896 104.103 105.724 104.026 105.598 103.888C105.471 103.751 105.4 103.564 105.4 103.369C105.4 103.175 105.471 102.988 105.598 102.85C105.724 102.713 105.896 102.635 106.074 102.635C106.253 102.635 106.425 102.713 106.551 102.85C106.677 102.988 106.748 103.175 106.748 103.369C106.748 103.564 106.677 103.751 106.551 103.888C106.425 104.026 106.253 104.103 106.074 104.103Z" fill="black"/>
<path d="M106.074 108.896C105.896 108.896 105.724 108.819 105.598 108.681C105.471 108.544 105.4 108.357 105.4 108.162C105.4 107.968 105.471 107.781 105.598 107.643C105.724 107.506 105.896 107.428 106.074 107.428C106.253 107.428 106.425 107.506 106.551 107.643C106.677 107.781 106.748 107.968 106.748 108.162C106.748 108.357 106.677 108.544 106.551 108.681C106.425 108.819 106.253 108.896 106.074 108.896Z" fill="black"/>
<path d="M106.074 113.689C105.896 113.689 105.724 113.612 105.598 113.474C105.471 113.337 105.4 113.15 105.4 112.955C105.4 112.761 105.471 112.574 105.598 112.436C105.724 112.299 105.896 112.221 106.074 112.221C106.253 112.221 106.425 112.299 106.551 112.436C106.677 112.574 106.748 112.761 106.748 112.955C106.748 113.15 106.677 113.337 106.551 113.474C106.425 113.612 106.253 113.689 106.074 113.689Z" fill="black"/>
<path d="M106.074 118.482C105.896 118.482 105.724 118.405 105.598 118.267C105.471 118.13 105.4 117.943 105.4 117.748C105.4 117.553 105.471 117.367 105.598 117.229C105.724 117.091 105.896 117.014 106.074 117.014C106.253 117.014 106.425 117.091 106.551 117.229C106.677 117.367 106.748 117.553 106.748 117.748C106.748 117.943 106.677 118.13 106.551 118.267C106.425 118.405 106.253 118.482 106.074 118.482Z" fill="black"/>
<path d="M106.074 123.268C105.896 123.268 105.724 123.191 105.598 123.053C105.471 122.916 105.4 122.729 105.4 122.534C105.4 122.34 105.471 122.153 105.598 122.015C105.724 121.878 105.896 121.8 106.074 121.8C106.253 121.8 106.425 121.878 106.551 122.015C106.677 122.153 106.748 122.34 106.748 122.534C106.748 122.729 106.677 122.916 106.551 123.053C106.425 123.191 106.253 123.268 106.074 123.268Z" fill="black"/>
<path d="M106.074 128.061C105.896 128.061 105.724 127.984 105.598 127.846C105.471 127.709 105.4 127.522 105.4 127.327C105.4 127.133 105.471 126.946 105.598 126.808C105.724 126.671 105.896 126.593 106.074 126.593C106.253 126.593 106.425 126.671 106.551 126.808C106.677 126.946 106.748 127.133 106.748 127.327C106.748 127.522 106.677 127.709 106.551 127.846C106.425 127.984 106.253 128.061 106.074 128.061Z" fill="black"/>
<path d="M106.074 132.854C105.896 132.854 105.724 132.777 105.598 132.639C105.471 132.502 105.4 132.315 105.4 132.12C105.4 131.926 105.471 131.739 105.598 131.601C105.724 131.464 105.896 131.386 106.074 131.386C106.253 131.386 106.425 131.464 106.551 131.601C106.677 131.739 106.748 131.926 106.748 132.12C106.748 132.315 106.677 132.502 106.551 132.639C106.425 132.777 106.253 132.854 106.074 132.854Z" fill="black"/>
</g>
<path d="M257.482 132.37H149.285V207.817H257.482V132.37Z" fill="#263238"/>
<path opacity="0.9" d="M257.482 132.37H149.285V207.817H257.482V132.37Z" fill="white"/>
<path opacity="0.1" d="M166.162 132.37H149.285V207.817H166.162V132.37Z" fill="black"/>
<path d="M257.482 132.37H149.285V138.454H257.482V132.37Z" fill="#090047"/>
<path d="M156.928 145.126L155.136 145.86L156.928 146.594V147.328L154.367 146.264V145.53L156.928 144.473V145.126Z" fill="white"/>
<path d="M158.861 142.954H159.61L157.83 148.481H157.082L158.861 142.954Z" fill="white"/>
<path d="M162.272 145.457V146.191L159.711 147.255V146.521L161.504 145.787L159.711 145.053V144.319L162.272 145.457Z" fill="white"/>
<g opacity="0.2">
<path d="M161.896 153.516H154.563C154.384 153.516 154.212 153.439 154.086 153.301C153.96 153.163 153.889 152.977 153.889 152.782C153.889 152.587 153.96 152.4 154.086 152.263C154.212 152.125 154.384 152.048 154.563 152.048H161.896C162.075 152.048 162.246 152.125 162.372 152.263C162.499 152.4 162.57 152.587 162.57 152.782C162.57 152.977 162.499 153.163 162.372 153.301C162.246 153.439 162.075 153.516 161.896 153.516Z" fill="black"/>
<path d="M161.896 158.301H154.563C154.384 158.301 154.212 158.224 154.086 158.087C153.96 157.949 153.889 157.762 153.889 157.567C153.889 157.373 153.96 157.186 154.086 157.048C154.212 156.911 154.384 156.833 154.563 156.833H161.896C162.075 156.833 162.246 156.911 162.372 157.048C162.499 157.186 162.57 157.373 162.57 157.567C162.57 157.762 162.499 157.949 162.372 158.087C162.246 158.224 162.075 158.301 161.896 158.301Z" fill="black"/>
<path d="M161.896 163.094H154.563C154.384 163.094 154.212 163.017 154.086 162.879C153.96 162.742 153.889 162.555 153.889 162.36C153.889 162.166 153.96 161.979 154.086 161.841C154.212 161.704 154.384 161.626 154.563 161.626H161.896C162.075 161.626 162.246 161.704 162.372 161.841C162.499 161.979 162.57 162.166 162.57 162.36C162.57 162.555 162.499 162.742 162.372 162.879C162.246 163.017 162.075 163.094 161.896 163.094Z" fill="black"/>
<path d="M161.896 167.887H154.563C154.384 167.887 154.212 167.81 154.086 167.672C153.96 167.535 153.889 167.348 153.889 167.153C153.889 166.959 153.96 166.772 154.086 166.634C154.212 166.497 154.384 166.419 154.563 166.419H161.896C162.075 166.419 162.246 166.497 162.372 166.634C162.499 166.772 162.57 166.959 162.57 167.153C162.57 167.348 162.499 167.535 162.372 167.672C162.246 167.81 162.075 167.887 161.896 167.887Z" fill="black"/>
<path d="M161.896 172.68H154.563C154.384 172.68 154.212 172.603 154.086 172.465C153.96 172.328 153.889 172.141 153.889 171.946C153.889 171.752 153.96 171.565 154.086 171.427C154.212 171.29 154.384 171.212 154.563 171.212H161.896C162.075 171.212 162.246 171.29 162.372 171.427C162.499 171.565 162.57 171.752 162.57 171.946C162.57 172.141 162.499 172.328 162.372 172.465C162.246 172.603 162.075 172.68 161.896 172.68Z" fill="black"/>
<path d="M161.896 177.466H154.563C154.384 177.466 154.212 177.389 154.086 177.251C153.96 177.113 153.889 176.927 153.889 176.732C153.889 176.537 153.96 176.351 154.086 176.213C154.212 176.075 154.384 175.998 154.563 175.998H161.896C162.075 175.998 162.246 176.075 162.372 176.213C162.499 176.351 162.57 176.537 162.57 176.732C162.57 176.927 162.499 177.113 162.372 177.251C162.246 177.389 162.075 177.466 161.896 177.466Z" fill="black"/>
<path d="M161.896 182.26H154.563C154.384 182.26 154.212 182.182 154.086 182.045C153.96 181.907 153.889 181.72 153.889 181.526C153.889 181.331 153.96 181.144 154.086 181.006C154.212 180.869 154.384 180.792 154.563 180.792H161.896C162.075 180.792 162.246 180.869 162.372 181.006C162.499 181.144 162.57 181.331 162.57 181.526C162.57 181.72 162.499 181.907 162.372 182.045C162.246 182.182 162.075 182.26 161.896 182.26Z" fill="black"/>
<path d="M161.896 187.052H154.563C154.384 187.052 154.212 186.975 154.086 186.837C153.96 186.7 153.889 186.513 153.889 186.318C153.889 186.124 153.96 185.937 154.086 185.799C154.212 185.662 154.384 185.584 154.563 185.584H161.896C162.075 185.584 162.246 185.662 162.372 185.799C162.499 185.937 162.57 186.124 162.57 186.318C162.57 186.513 162.499 186.7 162.372 186.837C162.246 186.975 162.075 187.052 161.896 187.052Z" fill="black"/>
<path d="M161.896 191.845H154.563C154.384 191.845 154.212 191.768 154.086 191.63C153.96 191.493 153.889 191.306 153.889 191.111C153.889 190.917 153.96 190.73 154.086 190.592C154.212 190.455 154.384 190.377 154.563 190.377H161.896C162.075 190.377 162.246 190.455 162.372 190.592C162.499 190.73 162.57 190.917 162.57 191.111C162.57 191.306 162.499 191.493 162.372 191.63C162.246 191.768 162.075 191.845 161.896 191.845Z" fill="black"/>
</g>
<path d="M183.092 153.516H168.055C167.876 153.516 167.705 153.439 167.578 153.301C167.452 153.163 167.381 152.977 167.381 152.782C167.381 152.587 167.452 152.4 167.578 152.263C167.705 152.125 167.876 152.048 168.055 152.048H183.092C183.271 152.048 183.442 152.125 183.568 152.263C183.695 152.4 183.766 152.587 183.766 152.782C183.766 152.977 183.695 153.163 183.568 153.301C183.442 153.439 183.271 153.516 183.092 153.516Z" fill="#090047"/>
<path d="M226.289 153.516H187.096C186.917 153.516 186.746 153.439 186.619 153.301C186.493 153.163 186.422 152.977 186.422 152.782C186.422 152.587 186.493 152.4 186.619 152.263C186.746 152.125 186.917 152.048 187.096 152.048H226.289C226.468 152.048 226.639 152.125 226.766 152.263C226.892 152.4 226.963 152.587 226.963 152.782C226.963 152.977 226.892 153.163 226.766 153.301C226.639 153.439 226.468 153.516 226.289 153.516Z" fill="#263238"/>
<g opacity="0.2">
<path d="M244.177 153.516H232.82C232.642 153.516 232.47 153.439 232.344 153.301C232.218 153.163 232.146 152.977 232.146 152.782C232.146 152.587 232.218 152.4 232.344 152.263C232.47 152.125 232.642 152.048 232.82 152.048H244.177C244.356 152.048 244.528 152.125 244.654 152.263C244.78 152.4 244.851 152.587 244.851 152.782C244.851 152.977 244.78 153.163 244.654 153.301C244.528 153.439 244.356 153.516 244.177 153.516Z" fill="#263238"/>
</g>
<g opacity="0.2">
<path d="M209.359 158.302H170.078C169.9 158.302 169.728 158.225 169.602 158.087C169.475 157.949 169.404 157.763 169.404 157.568C169.404 157.373 169.475 157.187 169.602 157.049C169.728 156.911 169.9 156.834 170.078 156.834H209.359C209.538 156.834 209.709 156.911 209.836 157.049C209.962 157.187 210.033 157.373 210.033 157.568C210.033 157.763 209.962 157.949 209.836 158.087C209.709 158.225 209.538 158.302 209.359 158.302Z" fill="#263238"/>
</g>
<path d="M249.569 158.302H212.984C212.806 158.302 212.634 158.225 212.508 158.087C212.381 157.949 212.31 157.763 212.31 157.568C212.31 157.373 212.381 157.187 212.508 157.049C212.634 156.911 212.806 156.834 212.984 156.834H249.596C249.775 156.834 249.946 156.911 250.073 157.049C250.199 157.187 250.27 157.373 250.27 157.568C250.27 157.763 250.199 157.949 250.073 158.087C249.946 158.225 249.775 158.302 249.596 158.302H249.569Z" fill="#090047"/>
<path d="M193.358 163.095H170.078C169.9 163.095 169.728 163.018 169.602 162.88C169.475 162.742 169.404 162.556 169.404 162.361C169.404 162.166 169.475 161.98 169.602 161.842C169.728 161.704 169.9 161.627 170.078 161.627H193.358C193.537 161.627 193.708 161.704 193.835 161.842C193.961 161.98 194.032 162.166 194.032 162.361C194.032 162.556 193.961 162.742 193.835 162.88C193.708 163.018 193.537 163.095 193.358 163.095Z" fill="#263238"/>
<path d="M221.072 163.095H198.156C197.978 163.095 197.806 163.018 197.68 162.88C197.553 162.742 197.482 162.556 197.482 162.361C197.482 162.166 197.553 161.98 197.68 161.842C197.806 161.704 197.978 161.627 198.156 161.627H221.072C221.251 161.627 221.423 161.704 221.549 161.842C221.675 161.98 221.746 162.166 221.746 162.361C221.746 162.556 221.675 162.742 221.549 162.88C221.423 163.018 221.251 163.095 221.072 163.095Z" fill="#090047"/>
<path d="M249.57 163.095H224.82C224.642 163.095 224.47 163.018 224.344 162.88C224.218 162.742 224.146 162.556 224.146 162.361C224.146 162.166 224.218 161.98 224.344 161.842C224.47 161.704 224.642 161.627 224.82 161.627H249.57C249.749 161.627 249.92 161.704 250.046 161.842C250.173 161.98 250.244 162.166 250.244 162.361C250.244 162.556 250.173 162.742 250.046 162.88C249.92 163.018 249.749 163.095 249.57 163.095Z" fill="#263238"/>
<path d="M195.515 167.888H181.543C181.364 167.888 181.193 167.811 181.067 167.673C180.94 167.535 180.869 167.349 180.869 167.154C180.869 166.959 180.94 166.773 181.067 166.635C181.193 166.497 181.364 166.42 181.543 166.42H195.515C195.694 166.42 195.865 166.497 195.992 166.635C196.118 166.773 196.189 166.959 196.189 167.154C196.189 167.349 196.118 167.535 195.992 167.673C195.865 167.811 195.694 167.888 195.515 167.888Z" fill="#263238"/>
<path d="M215.304 167.888H200.051C199.872 167.888 199.701 167.811 199.574 167.673C199.448 167.535 199.377 167.349 199.377 167.154C199.377 166.959 199.448 166.773 199.574 166.635C199.701 166.497 199.872 166.42 200.051 166.42H215.304C215.482 166.42 215.654 166.497 215.78 166.635C215.907 166.773 215.978 166.959 215.978 167.154C215.978 167.349 215.907 167.535 215.78 167.673C215.654 167.811 215.482 167.888 215.304 167.888Z" fill="#263238"/>
<g opacity="0.2">
<path d="M243.504 167.888H218.768C218.589 167.888 218.418 167.811 218.291 167.673C218.165 167.535 218.094 167.349 218.094 167.154C218.094 166.959 218.165 166.773 218.291 166.635C218.418 166.497 218.589 166.42 218.768 166.42H243.504C243.682 166.42 243.854 166.497 243.98 166.635C244.107 166.773 244.178 166.959 244.178 167.154C244.178 167.349 244.107 167.535 243.98 167.673C243.854 167.811 243.682 167.888 243.504 167.888Z" fill="#263238"/>
</g>
<g opacity="0.2">
<path d="M188.876 172.681H170.078C169.9 172.681 169.728 172.604 169.602 172.466C169.475 172.328 169.404 172.142 169.404 171.947C169.404 171.752 169.475 171.566 169.602 171.428C169.728 171.29 169.9 171.213 170.078 171.213H188.876C189.055 171.213 189.226 171.29 189.353 171.428C189.479 171.566 189.55 171.752 189.55 171.947C189.55 172.142 189.479 172.328 189.353 172.466C189.226 172.604 189.055 172.681 188.876 172.681Z" fill="#263238"/>
</g>
<path d="M191.228 177.467H170.078C169.9 177.467 169.728 177.389 169.602 177.252C169.475 177.114 169.404 176.927 169.404 176.733C169.404 176.538 169.475 176.351 169.602 176.214C169.728 176.076 169.9 175.999 170.078 175.999H191.228C191.407 175.999 191.579 176.076 191.705 176.214C191.831 176.351 191.902 176.538 191.902 176.733C191.902 176.927 191.831 177.114 191.705 177.252C191.579 177.389 191.407 177.467 191.228 177.467Z" fill="#090047"/>
<path d="M226.558 177.467H194.692C194.513 177.467 194.341 177.389 194.215 177.252C194.089 177.114 194.018 176.927 194.018 176.733C194.018 176.538 194.089 176.351 194.215 176.214C194.341 176.076 194.513 175.999 194.692 175.999H226.558C226.737 175.999 226.908 176.076 227.035 176.214C227.161 176.351 227.232 176.538 227.232 176.733C227.232 176.927 227.161 177.114 227.035 177.252C226.908 177.389 226.737 177.467 226.558 177.467Z" fill="#263238"/>
<path d="M249.568 177.467H230.42C230.241 177.467 230.07 177.389 229.944 177.252C229.817 177.114 229.746 176.927 229.746 176.733C229.746 176.538 229.817 176.351 229.944 176.214C230.07 176.076 230.241 175.999 230.42 175.999H249.568C249.747 175.999 249.919 176.076 250.045 176.214C250.171 176.351 250.242 176.538 250.242 176.733C250.242 176.927 250.171 177.114 250.045 177.252C249.919 177.389 249.747 177.467 249.568 177.467Z" fill="#263238"/>
<g opacity="0.2">
<path d="M188.929 182.26H176.797C176.619 182.26 176.447 182.182 176.321 182.045C176.194 181.907 176.123 181.72 176.123 181.526C176.123 181.331 176.194 181.144 176.321 181.006C176.447 180.869 176.619 180.792 176.797 180.792H188.929C189.108 180.792 189.279 180.869 189.406 181.006C189.532 181.144 189.603 181.331 189.603 181.526C189.603 181.72 189.532 181.907 189.406 182.045C189.279 182.182 189.108 182.26 188.929 182.26Z" fill="#263238"/>
</g>
<g opacity="0.2">
<path d="M216.287 182.26H193.061C192.882 182.26 192.711 182.182 192.584 182.045C192.458 181.907 192.387 181.72 192.387 181.526C192.387 181.331 192.458 181.144 192.584 181.006C192.711 180.869 192.882 180.792 193.061 180.792H216.287C216.466 180.792 216.637 180.869 216.764 181.006C216.89 181.144 216.961 181.331 216.961 181.526C216.961 181.72 216.89 181.907 216.764 182.045C216.637 182.182 216.466 182.26 216.287 182.26Z" fill="#263238"/>
</g>
<path d="M243.503 182.26H220.822C220.644 182.26 220.472 182.182 220.346 182.045C220.219 181.907 220.148 181.72 220.148 181.526C220.148 181.331 220.219 181.144 220.346 181.006C220.472 180.869 220.644 180.792 220.822 180.792H243.503C243.681 180.792 243.853 180.869 243.979 181.006C244.106 181.144 244.177 181.331 244.177 181.526C244.177 181.72 244.106 181.907 243.979 182.045C243.853 182.182 243.681 182.26 243.503 182.26Z" fill="#263238"/>
<path d="M197.84 187.052H183.565C183.386 187.052 183.214 186.975 183.088 186.837C182.962 186.7 182.891 186.513 182.891 186.318C182.891 186.124 182.962 185.937 183.088 185.799C183.214 185.662 183.386 185.584 183.565 185.584H197.84C198.019 185.584 198.19 185.662 198.317 185.799C198.443 185.937 198.514 186.124 198.514 186.318C198.514 186.513 198.443 186.7 198.317 186.837C198.19 186.975 198.019 187.052 197.84 187.052Z" fill="#263238"/>
<g opacity="0.2">
<path d="M214.366 187.052H200.771C200.593 187.052 200.421 186.975 200.295 186.837C200.168 186.7 200.097 186.513 200.097 186.318C200.097 186.124 200.168 185.937 200.295 185.799C200.421 185.662 200.593 185.584 200.771 185.584H214.366C214.545 185.584 214.716 185.662 214.843 185.799C214.969 185.937 215.04 186.124 215.04 186.318C215.04 186.513 214.969 186.7 214.843 186.837C214.716 186.975 214.545 187.052 214.366 187.052Z" fill="#263238"/>
</g>
<path d="M243.504 187.052H218.633C218.454 187.052 218.283 186.975 218.156 186.837C218.03 186.7 217.959 186.513 217.959 186.318C217.959 186.124 218.03 185.937 218.156 185.799C218.283 185.662 218.454 185.584 218.633 185.584H243.504C243.682 185.584 243.854 185.662 243.98 185.799C244.107 185.937 244.178 186.124 244.178 186.318C244.178 186.513 244.107 186.7 243.98 186.837C243.854 186.975 243.682 187.052 243.504 187.052Z" fill="#090047"/>
<g opacity="0.2">
<path d="M201.014 191.846H183.565C183.386 191.846 183.214 191.769 183.088 191.631C182.962 191.493 182.891 191.307 182.891 191.112C182.891 190.917 182.962 190.731 183.088 190.593C183.214 190.455 183.386 190.378 183.565 190.378H201.014C201.193 190.378 201.365 190.455 201.491 190.593C201.617 190.731 201.688 190.917 201.688 191.112C201.688 191.307 201.617 191.493 201.491 191.631C201.365 191.769 201.193 191.846 201.014 191.846Z" fill="#263238"/>
</g>
<path opacity="0.4" d="M252.75 135.46C252.75 135.71 252.818 135.954 252.946 136.162C253.074 136.37 253.255 136.532 253.467 136.627C253.679 136.722 253.913 136.747 254.138 136.697C254.363 136.648 254.57 136.527 254.731 136.35C254.893 136.173 255.003 135.947 255.047 135.702C255.091 135.456 255.067 135.202 254.978 134.972C254.89 134.741 254.74 134.544 254.548 134.406C254.357 134.269 254.132 134.196 253.903 134.197C253.751 134.197 253.6 134.23 253.46 134.294C253.32 134.357 253.192 134.45 253.085 134.568C252.978 134.685 252.893 134.824 252.836 134.977C252.778 135.13 252.749 135.294 252.75 135.46Z" fill="white"/>
<path opacity="0.4" d="M249.885 136.715C250.521 136.715 251.037 136.153 251.037 135.46C251.037 134.767 250.521 134.205 249.885 134.205C249.248 134.205 248.732 134.767 248.732 135.46C248.732 136.153 249.248 136.715 249.885 136.715Z" fill="white"/>
<path opacity="0.4" d="M245.834 136.715C246.471 136.715 246.987 136.153 246.987 135.46C246.987 134.767 246.471 134.205 245.834 134.205C245.198 134.205 244.682 134.767 244.682 135.46C244.682 136.153 245.198 136.715 245.834 136.715Z" fill="white"/>
<path d="M76.3378 136.832H56.9805C56.1975 136.831 55.422 136.998 54.6984 137.324C53.9747 137.649 53.3171 138.127 52.7631 138.73C52.2091 139.333 51.7697 140.048 51.4698 140.836C51.17 141.624 51.0156 142.468 51.0156 143.321V161.671C51.0147 162.523 51.1682 163.368 51.4672 164.156C51.7663 164.944 52.205 165.66 52.7583 166.263C53.3117 166.867 53.9688 167.345 54.6921 167.672C55.4155 167.998 56.1908 168.166 56.9738 168.166H70.7032L74.7472 173.958V168.166H76.3311C77.9131 168.166 79.4303 167.482 80.5489 166.264C81.6675 165.046 82.296 163.393 82.296 161.671V143.321C82.296 141.6 81.6682 139.949 80.5509 138.732C79.4335 137.516 77.918 136.832 76.3378 136.832Z" fill="#090047"/>
<path opacity="0.7" d="M76.3378 136.832H56.9805C56.1975 136.831 55.422 136.998 54.6984 137.324C53.9747 137.649 53.3171 138.127 52.7631 138.73C52.2091 139.333 51.7697 140.048 51.4698 140.836C51.17 141.624 51.0156 142.468 51.0156 143.321V161.671C51.0147 162.523 51.1682 163.368 51.4672 164.156C51.7663 164.944 52.205 165.66 52.7583 166.263C53.3117 166.867 53.9688 167.345 54.6921 167.672C55.4155 167.998 56.1908 168.166 56.9738 168.166H70.7032L74.7472 173.958V168.166H76.3311C77.9131 168.166 79.4303 167.482 80.5489 166.264C81.6675 165.046 82.296 163.393 82.296 161.671V143.321C82.296 141.6 81.6682 139.949 80.5509 138.732C79.4335 137.516 77.918 136.832 76.3378 136.832Z" fill="white"/>
<path d="M65.6482 157.076C65.5202 157.075 65.3938 157.045 65.2776 156.986C65.1613 156.928 65.0579 156.844 64.9742 156.738L61.2065 151.938C61.1313 151.841 61.0742 151.73 61.0386 151.609C61.0029 151.489 60.9894 151.362 60.9988 151.236C61.0082 151.11 61.0403 150.987 61.0933 150.875C61.1463 150.762 61.2191 150.662 61.3076 150.58C61.3961 150.498 61.4986 150.436 61.6091 150.397C61.7197 150.358 61.8362 150.343 61.952 150.354C62.0678 150.364 62.1806 150.399 62.284 150.457C62.3873 150.514 62.4793 150.594 62.5545 150.69L65.6482 154.668L70.7638 148.106C70.9175 147.922 71.1311 147.809 71.3594 147.793C71.5878 147.776 71.8131 147.857 71.9879 148.018C72.1627 148.178 72.2733 148.407 72.2964 148.655C72.3195 148.903 72.2534 149.151 72.1118 149.347L66.3222 156.753C66.2378 156.856 66.1339 156.939 66.0176 156.994C65.9012 157.05 65.7752 157.078 65.6482 157.076Z" fill="white"/>
<path d="M73.451 159.814C77.2044 155.727 77.2044 149.099 73.451 145.012C69.6976 140.924 63.6121 140.924 59.8587 145.012C56.1052 149.099 56.1052 155.727 59.8587 159.814C63.6121 163.902 69.6976 163.902 73.451 159.814Z" fill="#9080F7"/>
<path d="M137.982 266.794L152.453 266.023L151.044 279.727C151.044 279.727 141.001 281.812 136.519 274.031L137.982 266.794Z" fill="#EBB376"/>
<path d="M161.78 270.802L158.484 280.74L151.043 279.727L152.451 266.023L161.78 270.802Z" fill="#EBB376"/>
<path d="M124.089 289.034C129.6 285.901 134.622 281.841 138.971 277.004L137.98 266.794C124.305 268.996 116.412 272.145 116.412 272.145C116.412 272.145 121.481 252.364 116.844 245.156L104.112 247.666C104.112 247.666 90.5848 278.289 99.6838 289.034H124.089Z" fill="#090047"/>
<path opacity="0.7" d="M124.07 289.034C129.583 285.902 134.61 281.845 138.965 277.011L137.981 266.787C124.744 268.901 116.919 271.925 116.413 272.123C116.582 271.389 121.374 252.224 116.831 245.148L104.099 247.659C101.482 253.808 99.4033 260.212 97.8918 266.787C96.072 275.147 95.5395 284.153 99.6779 289.034H124.07Z" fill="white"/>
<path opacity="0.2" d="M113.602 289.034C118.098 258.015 114.115 250.132 114.115 250.132L97.9386 266.772C96.1188 275.132 95.5863 284.139 99.7247 289.02L113.602 289.034Z" fill="black"/>
<path d="M110.792 289.035C113.825 273.356 117.229 248.811 116.858 245.156C116.319 239.842 89.7768 217.073 66.7395 233.647C62.0215 237.031 59.6153 273.532 58.793 289.035H110.792Z" fill="#090047"/>
<path opacity="0.7" d="M110.792 289.035C113.825 273.356 117.229 248.804 116.858 245.149C116.319 239.842 89.7701 217.073 66.7327 233.654C65.0275 234.895 63.6256 240.495 62.4663 247.894C60.9296 257.964 59.8647 271.338 59.2311 281.423C59.0559 284.278 58.9076 286.862 58.793 289.035H110.792Z" fill="white"/>
<path d="M99.4217 166.288C91.4348 162.772 72.6033 175.389 70.952 197.886C69.3007 220.383 79.7746 214.152 79.7746 214.152C79.7746 214.152 81.6416 222.732 89.2713 220.082C89.2713 220.082 95.5732 227.856 101.437 224.692C101.437 224.692 108.736 232.971 112.652 228.604C112.652 228.604 116.912 233.896 120.801 229.889C124.69 225.881 135.804 184.968 118.368 175.507C100.931 166.045 99.4217 166.288 99.4217 166.288Z" fill="#263238"/>
<path d="M99.4345 258.368L98.6662 258.294C99.5559 247.46 97.3654 242.667 97.3182 242.623L97.9922 242.234C98.1202 242.403 100.344 247.226 99.4345 258.368Z" fill="#263238"/>
<path d="M103.049 258.463C97.7578 244.891 103.723 241.728 103.965 241.581L104.282 242.315C104.228 242.315 98.7823 245.317 103.756 258.089L103.049 258.463Z" fill="#263238"/>
<path d="M97.8783 244.818C97.8783 244.818 87.6672 236.01 71.8147 231.048L66.726 233.647C66.726 233.647 58.1932 222.145 72.4146 218.379C86.636 214.614 105.98 224.985 110.833 233.867C115.685 242.748 102.394 245.611 102.394 245.611C102.394 245.611 101.174 243.805 97.8783 244.818Z" fill="#090047"/>
<path opacity="0.6" d="M97.8783 244.818C97.8783 244.818 87.6672 236.01 71.8147 231.048L66.726 233.647C66.726 233.647 58.1932 222.145 72.4146 218.379C86.636 214.614 105.98 224.985 110.833 233.867C115.685 242.748 102.394 245.611 102.394 245.611C102.394 245.611 101.174 243.805 97.8783 244.818Z" fill="white"/>
<path d="M104.039 258.302C104.039 258.447 104 258.589 103.926 258.71C103.852 258.83 103.746 258.924 103.623 258.98C103.5 259.036 103.364 259.05 103.234 259.022C103.103 258.993 102.983 258.924 102.889 258.821C102.794 258.718 102.73 258.587 102.704 258.445C102.678 258.303 102.692 258.155 102.743 258.021C102.794 257.887 102.88 257.772 102.991 257.692C103.102 257.611 103.232 257.568 103.365 257.568C103.544 257.568 103.715 257.645 103.842 257.783C103.968 257.92 104.039 258.107 104.039 258.302Z" fill="white"/>
<path d="M99.6644 258.302C99.6644 258.447 99.6249 258.589 99.5508 258.71C99.4767 258.83 99.3715 258.924 99.2483 258.98C99.1252 259.036 98.9896 259.05 98.8589 259.022C98.7282 258.993 98.6081 258.924 98.5138 258.821C98.4195 258.718 98.3553 258.587 98.3293 258.445C98.3033 258.303 98.3167 258.155 98.3677 258.021C98.4187 257.887 98.5051 257.772 98.6159 257.692C98.7268 257.611 98.8571 257.568 98.9904 257.568C99.1691 257.568 99.3406 257.645 99.467 257.783C99.5934 257.92 99.6644 258.107 99.6644 258.302Z" fill="white"/>
<path d="M92.4518 203.318C91.8318 211.194 89.6143 225.213 83.7303 228.274C83.7303 228.274 90.3085 229.742 100.58 243.915C106.424 239.453 104.213 236.407 104.213 236.407C97.3788 231.525 99.1514 225.507 101.915 220.259L92.4518 203.318Z" fill="#EBB376"/>
<path opacity="0.2" d="M96.3011 210.225L101.902 220.28C101.233 221.494 100.667 222.772 100.21 224.097C97.5143 222.526 94.5622 217.55 95.1216 214.144C95.296 212.771 95.6955 211.444 96.3011 210.225Z" fill="black"/>
<path d="M91.664 186.663C89.7835 199.039 88.7456 204.221 92.9581 212.185C99.2869 224.171 113.313 224.736 118.469 213.403C123.106 203.2 125.404 184.674 115.726 176.498C106.175 168.438 93.531 174.281 91.664 186.663Z" fill="#EBB376"/>
<path d="M114.936 169.605C122.303 174.053 129.32 187.955 118.839 184.483C117.255 187.823 111.614 184.762 108.331 180.755C107.778 183.537 101.739 186.326 97.291 182.017C99.4411 185.394 95.7813 193.915 91.9732 192.447C88.1651 190.979 79.6187 189.049 87.1878 175.91C94.7568 162.772 107.071 164.842 114.936 169.605Z" fill="#263238"/>
<path d="M112.255 198.341C112.255 198.341 112.929 203.252 114.21 205.916C112.774 206.819 110.84 205.615 110.84 205.615L112.255 198.341Z" fill="#D58745"/>
<path d="M104.909 207.817C105.387 208.071 105.885 208.278 106.398 208.434C106.433 208.444 106.469 208.447 106.505 208.442C106.54 208.436 106.574 208.423 106.605 208.402C106.636 208.381 106.662 208.354 106.682 208.321C106.702 208.289 106.715 208.252 106.722 208.213C106.74 208.133 106.728 208.047 106.689 207.976C106.65 207.904 106.587 207.852 106.513 207.832C105.353 207.478 104.281 206.845 103.376 205.98C102.471 205.115 101.755 204.039 101.282 202.833C101.272 202.794 101.255 202.758 101.232 202.726C101.209 202.695 101.18 202.668 101.147 202.649C101.115 202.63 101.079 202.618 101.042 202.615C101.005 202.611 100.967 202.615 100.932 202.628C100.864 202.659 100.809 202.717 100.78 202.791C100.751 202.865 100.75 202.949 100.777 203.024C101.566 205.121 103.037 206.827 104.909 207.817Z" fill="#263238"/>
<path d="M85.9283 195.56C86.5636 198.133 88.1101 200.326 90.2284 201.659C92.9716 203.296 94.9464 200.492 94.7442 197.006C94.5352 193.857 92.8502 189.218 89.8442 189.034C86.8382 188.851 85.1127 192.308 85.9283 195.56Z" fill="#EBB376"/>
<path d="M104.133 187.001C104.2 187.035 104.274 187.053 104.348 187.053C104.423 187.053 104.497 187.035 104.564 187.001C105.162 186.639 105.833 186.444 106.517 186.431C107.201 186.418 107.878 186.589 108.487 186.928C108.547 186.97 108.615 186.998 108.686 187.009C108.757 187.021 108.83 187.017 108.899 186.996C108.968 186.975 109.033 186.939 109.088 186.889C109.144 186.839 109.189 186.777 109.221 186.707C109.288 186.56 109.302 186.39 109.261 186.232C109.22 186.073 109.127 185.937 108.999 185.849C108.239 185.395 107.386 185.157 106.519 185.157C105.652 185.157 104.799 185.395 104.038 185.849C103.911 185.931 103.817 186.064 103.777 186.22C103.737 186.376 103.753 186.542 103.823 186.685C103.888 186.827 103.998 186.939 104.133 187.001Z" fill="#263238"/>
<path d="M122.243 191.831C122.304 191.869 122.371 191.892 122.441 191.9C122.511 191.907 122.581 191.899 122.647 191.875C122.718 191.849 122.782 191.809 122.838 191.756C122.893 191.702 122.938 191.638 122.97 191.565C123.002 191.493 123.021 191.414 123.024 191.333C123.028 191.253 123.017 191.173 122.991 191.097C122.745 190.143 122.3 189.264 121.691 188.528C121.082 187.792 120.325 187.22 119.48 186.854C119.41 186.828 119.336 186.817 119.263 186.824C119.19 186.832 119.119 186.856 119.055 186.895C118.991 186.935 118.935 186.989 118.892 187.055C118.849 187.12 118.82 187.194 118.806 187.273C118.771 187.432 118.791 187.6 118.863 187.744C118.936 187.888 119.054 187.997 119.197 188.051C119.863 188.351 120.457 188.813 120.934 189.402C121.411 189.991 121.757 190.692 121.946 191.449C121.97 191.531 122.009 191.607 122.059 191.673C122.11 191.738 122.173 191.792 122.243 191.831Z" fill="#263238"/>
<path d="M107.758 195.097C107.428 196.081 106.673 196.676 106.073 196.433C105.473 196.191 105.258 195.208 105.588 194.231C105.918 193.255 106.673 192.653 107.266 192.895C107.859 193.138 108.082 194.121 107.758 195.097Z" fill="#263238"/>
<path d="M107.004 192.843L109.241 192.792C109.241 192.792 107.664 194.187 107.004 192.843Z" fill="#263238"/>
<path d="M119.076 199.009C118.745 199.985 117.99 200.58 117.397 200.345C116.804 200.11 116.575 199.112 116.905 198.143C117.236 197.174 117.99 196.572 118.59 196.807C119.19 197.042 119.406 198.026 119.076 199.009Z" fill="#263238"/>
<path d="M118.328 196.749L120.559 196.697C120.559 196.697 118.982 198.099 118.328 196.749Z" fill="#263238"/>
<path d="M106.694 202.033C105.998 202.036 105.309 201.878 104.672 201.571C103.999 201.234 103.4 200.742 102.918 200.129C102.436 199.515 102.083 198.795 101.882 198.018C101.447 196.343 101.566 194.555 102.218 192.966C102.869 191.377 104.012 190.087 105.447 189.321C106.112 188.959 106.842 188.762 107.586 188.744C108.329 188.726 109.066 188.888 109.745 189.218C110.424 189.548 111.027 190.038 111.511 190.652C111.995 191.266 112.348 191.99 112.545 192.77C112.993 194.444 112.871 196.237 112.201 197.82C111.568 199.429 110.421 200.733 108.972 201.49C108.258 201.85 107.481 202.035 106.694 202.033ZM107.752 189.592C107.081 189.612 106.422 189.787 105.818 190.106C104.552 190.788 103.545 191.929 102.969 193.333C102.393 194.738 102.285 196.317 102.664 197.798C102.826 198.465 103.123 199.084 103.534 199.61C103.944 200.135 104.457 200.554 105.036 200.836C105.614 201.117 106.243 201.254 106.876 201.237C107.51 201.219 108.131 201.047 108.696 200.734C109.972 200.069 110.984 198.925 111.547 197.512C112.14 196.11 112.247 194.523 111.85 193.042C111.681 192.379 111.381 191.764 110.972 191.241C110.562 190.717 110.052 190.297 109.478 190.01C108.938 189.734 108.349 189.591 107.752 189.592Z" fill="#263238"/>
<path d="M117.909 205.777C117.212 205.783 116.522 205.626 115.887 205.314C115.213 204.977 114.614 204.485 114.131 203.872C113.648 203.258 113.293 202.539 113.09 201.762C112.658 200.086 112.779 198.299 113.432 196.71C114.084 195.121 115.227 193.831 116.662 193.064C117.326 192.701 118.056 192.503 118.799 192.484C119.542 192.466 120.28 192.628 120.958 192.958C121.637 193.288 122.239 193.778 122.723 194.393C123.206 195.008 123.558 195.733 123.752 196.514C124.206 198.186 124.086 199.981 123.415 201.564C122.96 202.763 122.2 203.797 121.225 204.543C120.25 205.29 119.099 205.717 117.909 205.777ZM118.98 193.299C118.3 193.304 117.629 193.469 117.012 193.783C115.737 194.453 114.726 195.599 114.161 197.013C113.565 198.411 113.457 199.997 113.858 201.476C114.027 202.139 114.327 202.755 114.736 203.28C115.146 203.805 115.656 204.226 116.23 204.514C118.589 205.667 121.515 204.169 122.741 201.189C123.331 199.787 123.438 198.201 123.045 196.719C122.874 196.057 122.574 195.443 122.164 194.92C121.755 194.396 121.245 193.976 120.672 193.688C120.136 193.445 119.56 193.325 118.98 193.336V193.299Z" fill="#263238"/>
<path d="M113.097 198.121C113.082 198.069 113.057 198.02 113.023 197.98C112.99 197.939 112.948 197.907 112.902 197.886C112.606 197.83 112.301 197.879 112.032 198.026L111.695 197.292C112.153 197.037 112.682 196.976 113.178 197.123C113.334 197.183 113.475 197.28 113.591 197.407C113.708 197.534 113.797 197.687 113.852 197.857L113.097 198.121Z" fill="#263238"/>
<path d="M94.6639 190.267L94.4334 191.07L103.557 194.175L103.787 193.372L94.6639 190.267Z" fill="#263238"/>
<path opacity="0.2" d="M92.5259 267.514C92.5259 267.514 74.793 282.311 59.2303 281.46C59.8639 271.374 60.9288 257.972 62.4655 247.93C64.0561 246.022 65.1008 244.862 65.1008 244.862L74.5368 252.547L72.2385 255.689C72.2385 255.689 86.5206 254.896 91.4947 255.689L92.5259 267.514Z" fill="black"/>
<path d="M94.3607 255.652L108.555 252.496L109.061 266.281C109.061 266.281 99.4292 269.995 93.9158 263.044L94.3607 255.652Z" fill="#EBB376"/>
<path d="M118.435 255.696L116.562 266.06L109.06 266.288L108.554 252.503L118.435 255.696Z" fill="#EBB376"/>
<path d="M94.3608 255.652L95.055 266.288L91.5232 268.013L90.0135 255.652H94.3608Z" fill="#090047"/>
<path opacity="0.6" d="M94.3608 255.652L95.055 266.288L91.5232 268.013L90.0135 255.652H94.3608Z" fill="white"/>
<path d="M71.8147 231.048C68.0059 231.781 64.5568 233.954 62.0754 237.185C57.7955 242.66 42.7114 258.926 46.0612 272.204C49.4109 285.482 81.6686 275.602 91.5224 268.013L90.0127 255.652L67.6696 257.436L74.5579 252.496C79.2826 238.183 71.8147 231.048 71.8147 231.048Z" fill="#090047"/>
<path opacity="0.7" d="M71.8147 231.048C68.0059 231.781 64.5568 233.954 62.0754 237.185C57.7955 242.66 42.7114 258.926 46.0612 272.204C49.4109 285.482 81.6686 275.602 91.5224 268.013L90.0127 255.652L67.6696 257.436L74.5579 252.496C79.2826 238.183 71.8147 231.048 71.8147 231.048Z" fill="white"/>
<path d="M136.525 267.029L140.59 266.288V278.149L137.368 278.722L136.525 267.029Z" fill="#090047"/>
<path opacity="0.6" d="M136.525 267.029L140.59 266.288V278.149L137.368 278.722L136.525 267.029Z" fill="white"/>
<path d="M128.31 278.032C128.298 277.382 128.328 276.732 128.397 276.087L128.519 275.111L127.649 275.668L127.13 276.006C126.96 276.09 126.784 276.161 126.605 276.219C126.298 276.325 125.968 276.325 125.661 276.219C125.364 276.099 125.103 275.894 124.906 275.624C124.678 275.327 124.498 274.989 124.374 274.626L123.612 272.314L123.073 274.766C123.019 275.008 122.985 275.257 122.945 275.5C122.904 275.742 122.81 275.955 122.749 276.182C122.62 276.548 122.404 276.87 122.122 277.114C121.808 277.29 121.442 277.325 121.105 277.21C120.68 277.088 120.275 276.895 119.905 276.637L118.732 275.837L119.204 277.136C119.408 277.689 119.57 278.258 119.689 278.839C119.748 279.129 119.784 279.424 119.797 279.72C119.827 280.022 119.765 280.326 119.622 280.586C119.858 280.379 120.021 280.088 120.08 279.764C120.157 279.448 120.198 279.122 120.202 278.795C120.215 278.538 120.215 278.281 120.202 278.024C120.398 278.145 120.6 278.253 120.808 278.347C121.114 278.484 121.443 278.55 121.774 278.541C122.104 278.532 122.43 278.449 122.729 278.296C123.299 277.948 123.743 277.399 123.989 276.74V276.645C124.354 277.097 124.843 277.409 125.383 277.534C125.923 277.66 126.486 277.592 126.989 277.342C127.187 277.244 127.378 277.131 127.562 277.004C127.562 277.004 127.562 277.056 127.562 277.085C127.61 277.431 127.675 277.774 127.757 278.113C127.839 278.454 127.952 278.786 128.094 279.103C128.229 279.423 128.429 279.704 128.68 279.926C128.529 279.638 128.431 279.322 128.391 278.993C128.344 278.675 128.317 278.354 128.31 278.032Z" fill="#090047"/>
<path d="M152.419 261.473C151.894 261.528 151.364 261.466 150.862 261.289C150.345 261.122 149.852 260.875 149.399 260.555C148.969 260.208 148.602 259.777 148.314 259.285C148.01 258.797 147.768 258.266 147.593 257.707L147.148 256.239L146.393 257.538C146.071 258.083 145.681 258.577 145.234 259.006C144.871 259.397 144.394 259.636 143.886 259.682H143.724L143.522 259.638C143.381 259.638 143.246 259.564 143.104 259.528C142.823 259.427 142.55 259.299 142.289 259.146C141.761 258.824 141.274 258.43 140.84 257.971L139.667 256.746L139.909 258.427C140.045 259.324 140.097 260.234 140.064 261.142C140.051 261.57 139.972 261.992 139.829 262.39C139.765 262.564 139.649 262.71 139.5 262.803C139.35 262.897 139.176 262.932 139.006 262.904H138.703L138.797 263.176C138.995 263.728 139.197 264.279 139.404 264.827C139.343 264.335 139.269 263.843 139.188 263.359H139.316C139.451 263.348 139.584 263.324 139.714 263.286C139.838 263.216 139.957 263.138 140.071 263.051C140.159 262.948 140.253 262.838 140.334 262.728C140.593 262.281 140.765 261.782 140.84 261.26C140.924 260.776 140.974 260.285 140.988 259.792C141.203 259.986 141.428 260.167 141.662 260.335C141.978 260.547 142.312 260.726 142.659 260.871C143.03 261.039 143.424 261.135 143.825 261.157C144.659 261.144 145.46 260.799 146.077 260.188C146.341 259.946 146.587 259.681 146.811 259.395C146.943 259.648 147.087 259.893 147.243 260.129C147.646 260.736 148.149 261.256 148.725 261.664C149.301 262.044 149.932 262.312 150.592 262.456C151.016 262.546 151.448 262.58 151.88 262.559C151.826 262.706 151.765 262.853 151.718 263.007C151.6 263.43 151.507 263.862 151.442 264.299C151.37 264.737 151.352 265.184 151.388 265.627C151.408 266.069 151.531 266.498 151.745 266.875C151.629 266.474 151.599 266.05 151.657 265.634C151.708 265.222 151.796 264.817 151.92 264.423C152.179 263.656 152.506 262.919 152.897 262.221L153.322 261.436L152.419 261.473Z" fill="#090047"/>
<path d="M287.26 304.853L50.8878 304.853C50.0941 304.853 49.333 304.509 48.7717 303.898C48.2105 303.287 47.8952 302.458 47.8952 301.594V293.666L290.252 293.666V301.594C290.252 302.458 289.937 303.287 289.376 303.898C288.814 304.509 288.053 304.853 287.26 304.853Z" fill="#090047"/>
<path opacity="0.2" d="M47.8885 299.252L290.252 299.252V293.659L47.8885 293.659V299.252Z" fill="black"/>
<path d="M42.8125 295.12H295.333C296.101 295.12 296.837 294.788 297.38 294.198C297.924 293.607 298.23 292.806 298.232 291.971C298.232 291.134 297.926 290.331 297.383 289.739C296.839 289.147 296.102 288.814 295.333 288.814H42.8125C42.0438 288.814 41.3067 289.147 40.7631 289.739C40.2196 290.331 39.9143 291.134 39.9143 291.971C39.9161 292.806 40.2222 293.607 40.7655 294.198C41.3088 294.788 42.045 295.12 42.8125 295.12Z" fill="#090047"/>
<path d="M278.22 250.294L270.846 286.715C270.712 287.298 270.405 287.817 269.972 288.191C269.54 288.565 269.006 288.774 268.454 288.785H228.176C227.925 288.778 227.679 288.708 227.458 288.58C227.236 288.452 227.045 288.27 226.898 288.048C226.752 287.826 226.655 287.571 226.615 287.301C226.574 287.032 226.592 286.756 226.666 286.495L234.026 250.353C234.177 249.802 234.497 249.324 234.932 249C235.368 248.675 235.893 248.523 236.419 248.569H276.697C277.775 248.598 278.456 249.134 278.22 250.294Z" fill="#263238"/>
<path opacity="0.4" d="M278.22 250.294L270.846 286.715C270.712 287.298 270.405 287.817 269.972 288.191C269.54 288.565 269.006 288.774 268.454 288.785H229.544C229.293 288.779 229.046 288.709 228.824 288.582C228.601 288.455 228.409 288.273 228.262 288.051C228.115 287.829 228.017 287.573 227.977 287.303C227.936 287.033 227.953 286.756 228.027 286.495L235.401 250.353C235.549 249.8 235.868 249.32 236.304 248.995C236.74 248.669 237.267 248.519 237.794 248.569H276.697C277.775 248.598 278.456 249.134 278.22 250.294Z" fill="white"/>
<path d="M271.797 287.662L279.13 251.432C279.373 250.243 278.692 249.707 277.607 249.707H238.704C238.177 249.659 237.652 249.811 237.216 250.136C236.781 250.461 236.461 250.939 236.311 251.49L228.863 288.139L271.797 287.662Z" fill="#090047"/>
<path opacity="0.4" d="M279.129 251.425L275.261 270.567L271.789 287.662L248.806 287.919L228.869 288.132L236.283 251.491C236.431 250.939 236.749 250.46 237.184 250.135C237.619 249.81 238.143 249.659 238.669 249.707H277.62C278.698 249.707 279.372 250.25 279.129 251.425Z" fill="white"/>
<path opacity="0.2" d="M275.261 270.567L271.79 287.662L248.806 287.919H229.719L232.839 272.284C232.94 271.8 233.187 271.367 233.542 271.055C233.897 270.743 234.338 270.571 234.794 270.567H275.261Z" fill="black"/>
<path d="M275.922 272.945C275.773 272.394 275.453 271.915 275.017 271.591C274.581 271.268 274.055 271.118 273.529 271.169H234.626C233.548 271.169 232.867 271.697 233.103 272.886L236.055 287.464H229.483C229.319 287.464 229.161 287.535 229.045 287.661C228.929 287.788 228.863 287.96 228.863 288.139C228.863 288.318 228.929 288.49 229.045 288.616C229.161 288.743 229.319 288.814 229.483 288.814H277.405C277.614 288.81 277.82 288.755 278.007 288.654C278.194 288.552 278.358 288.406 278.487 288.227C278.616 288.048 278.707 287.84 278.753 287.617C278.799 287.395 278.799 287.165 278.753 286.942L275.922 272.945Z" fill="#090047"/>
<path opacity="0.4" d="M275.922 272.945C275.773 272.394 275.453 271.915 275.017 271.591C274.581 271.268 274.055 271.118 273.529 271.169H234.626C233.548 271.169 232.867 271.697 233.103 272.886L236.055 287.464H229.483C229.319 287.464 229.161 287.535 229.045 287.661C228.929 287.788 228.863 287.96 228.863 288.139C228.863 288.318 228.929 288.49 229.045 288.616C229.161 288.743 229.319 288.814 229.483 288.814H277.405C277.614 288.81 277.82 288.755 278.007 288.654C278.194 288.552 278.358 288.406 278.487 288.227C278.616 288.048 278.707 287.84 278.753 287.617C278.799 287.395 278.799 287.165 278.753 286.942L275.922 272.945Z" fill="white"/>
<path d="M228.316 281.79H226.058L225.775 283.119H227.973L228.316 281.79Z" fill="black"/>
<path d="M214.048 288.983H207.544C207.494 288.984 207.443 288.974 207.396 288.953C207.349 288.933 207.307 288.902 207.271 288.863C207.235 288.824 207.207 288.777 207.188 288.726C207.169 288.675 207.159 288.62 207.16 288.565C207.16 288.454 207.201 288.347 207.273 288.269C207.345 288.191 207.443 288.146 207.544 288.146H214.048C215.116 288.149 216.17 287.889 217.132 287.387C218.095 286.885 218.941 286.154 219.609 285.247C220.349 284.241 221.288 283.429 222.355 282.873C223.423 282.316 224.592 282.029 225.776 282.032H226.922C227.023 282.034 227.12 282.079 227.192 282.157C227.263 282.235 227.304 282.34 227.306 282.451C227.306 282.562 227.266 282.668 227.194 282.746C227.121 282.825 227.024 282.869 226.922 282.869H225.79C224.722 282.867 223.668 283.126 222.706 283.628C221.743 284.13 220.897 284.862 220.229 285.768C219.487 286.776 218.547 287.589 217.476 288.145C216.406 288.702 215.234 288.988 214.048 288.983Z" fill="black"/>
<path d="M105.67 283.801V286.862C105.67 288.241 107.2 288.814 108.467 288.814H207.262C208.515 288.814 210.005 288.241 210.005 286.862V283.801H105.67Z" fill="#263238"/>
<path opacity="0.4" d="M105.67 283.801V286.862C105.67 288.241 107.2 288.814 108.467 288.814H207.262C208.515 288.814 210.005 288.241 210.005 286.862V283.801H105.67Z" fill="white"/>
<path opacity="0.2" d="M139.33 283.801V286.862C139.33 288.241 140.833 288.814 142.1 288.814H207.262C208.516 288.814 210.006 288.241 210.006 286.862V283.801H139.33Z" fill="black"/>
<path d="M226.537 225.58L214.776 283.676C214.565 284.61 214.077 285.442 213.387 286.042C212.697 286.642 211.844 286.976 210.961 286.994H146.709C145.003 286.994 143.898 285.254 144.296 283.324L156.044 225.668C156.441 223.775 158.14 222.828 159.865 222.828H224.111C225.836 222.835 226.921 223.686 226.537 225.58Z" fill="#263238"/>
<path opacity="0.4" d="M226.539 225.58L214.778 283.676C214.567 284.61 214.078 285.442 213.388 286.042C212.698 286.642 211.846 286.976 210.963 286.994H148.894C147.169 286.994 146.084 285.254 146.468 283.324L158.229 225.668C158.613 223.775 160.325 222.828 162.051 222.828H224.113C225.838 222.835 226.923 223.686 226.539 225.58Z" fill="white"/>
<path opacity="0.2" d="M194.86 255.109C194.86 260.086 189.967 264.13 186.374 264.13C182.782 264.13 180.659 260.086 181.656 255.109C182.654 250.133 186.246 246.264 189.744 246.11C188.72 251.087 190.91 255.109 194.462 255.109C194.595 255.123 194.728 255.123 194.86 255.109Z" fill="black"/>
</svg>
