<svg width="93" height="16" viewBox="0 0 93 16" fill="none" xmlns="http://www.w3.org/2000/svg">
<path d="M90.294 14H81.705C80.9877 13.9989 80.3002 13.7134 79.7931 13.2062C79.286 12.6989 79.0008 12.0113 79 11.294V2.70502C79.0008 1.98768 79.2862 1.29993 79.7935 0.792786C80.3008 0.285643 80.9887 0.000529354 81.706 0H90.294C91.0113 0.000793526 91.6989 0.286005 92.2062 0.793091C92.7135 1.30018 92.9989 1.98776 93 2.70502V11.294C92.9992 12.0114 92.7139 12.6992 92.2066 13.2065C91.6993 13.7138 91.0114 13.9992 90.294 14ZM80.362 5.56299V11.293C80.3625 11.6487 80.5041 11.9896 80.7557 12.241C81.0073 12.4924 81.3483 12.6337 81.704 12.634H90.293C90.6485 12.6334 90.9893 12.492 91.2406 12.2407C91.492 11.9893 91.6335 11.6485 91.634 11.293V5.56299H89.543C89.7306 6.01815 89.8271 6.50568 89.827 6.99799C89.8352 7.50596 89.7422 8.01049 89.5535 8.48218C89.3648 8.95387 89.0841 9.38329 88.7278 9.74542C88.3715 10.1076 87.9467 10.3952 87.4781 10.5915C87.0095 10.7878 86.5065 10.8889 85.9985 10.8889C85.4905 10.8889 84.9875 10.7878 84.5189 10.5915C84.0503 10.3952 83.6255 10.1076 83.2692 9.74542C82.9129 9.38329 82.6322 8.95387 82.4435 8.48218C82.2548 8.01049 82.1618 7.50596 82.17 6.99799C82.1702 6.50591 82.266 6.01855 82.452 5.56299H80.362ZM86 4.53601C85.6092 4.53699 85.2242 4.63057 84.8765 4.80908C84.5289 4.9876 84.2285 5.24595 84 5.56299C83.7353 5.93087 83.5772 6.3647 83.5433 6.81665C83.5094 7.26861 83.6008 7.72116 83.8077 8.12445C84.0145 8.52774 84.3286 8.86612 84.7154 9.10229C85.1023 9.33847 85.5468 9.46331 86 9.46301C86.6448 9.45002 87.2587 9.18476 87.7101 8.72418C88.1615 8.2636 88.4144 7.64441 88.4144 6.99951C88.4144 6.35461 88.1615 5.73542 87.7101 5.27484C87.2587 4.81426 86.6448 4.549 86 4.53601ZM91.379 1.612H91.07L89.005 1.61798L89.013 3.99103L91.378 3.98297V1.61102L91.379 1.612Z" fill="white"/>
<path d="M51.253 7.00483H49.29V13.9998H46.382V7.0058H45V4.53382H46.382V2.93384C46.3508 2.54053 46.4053 2.1451 46.5418 1.77491C46.6783 1.40471 46.8935 1.06856 47.1725 0.789616C47.4516 0.510674 47.7878 0.295599 48.158 0.159245C48.5283 0.022891 48.9237 -0.0315083 49.317 -0.000178996L51.472 0.00781661V2.40784H49.908C49.8209 2.40345 49.7338 2.41837 49.6531 2.45154C49.5724 2.48471 49.5001 2.53527 49.4412 2.59967C49.3823 2.66408 49.3384 2.74069 49.3127 2.82404C49.2869 2.90739 49.2798 2.9954 49.292 3.08179V4.53479H51.507L51.253 7.00483Z" fill="white"/>
<path d="M16.508 2.49298L16.471 2.46802C16.1163 2.1148 15.691 1.84046 15.223 1.66296C14.755 1.48547 14.2547 1.40878 13.755 1.43799L13.718 1.36401L13.743 1.35199C14.3557 1.29319 14.9377 1.05608 15.417 0.669983C15.467 0.469983 15.405 0.360022 15.194 0.335022C14.7484 0.385442 14.3114 0.494031 13.894 0.65802C14.394 0.33502 14.576 0.111977 14.465 0.000976562C13.8704 0.0589456 13.3161 0.32743 12.902 0.757996C13.102 0.410996 13.187 0.211988 13.138 0.187988C12.883 0.352256 12.6498 0.548154 12.444 0.770996C12.0733 1.1786 11.7334 1.61311 11.427 2.07098L11.414 2.09601C10.7832 3.10531 10.311 4.20542 10.014 5.35797L9.914 5.44501L9.88901 5.45697C9.48643 4.95371 8.99454 4.52895 8.438 4.20398C7.68087 3.71689 6.88444 3.2938 6.05701 2.93903C5.08525 2.43071 4.07314 2.00355 3.03101 1.66199C3.02812 2.22616 3.18198 2.78005 3.47543 3.2619C3.76889 3.74376 4.19041 4.13465 4.69299 4.39099V4.40302C4.30622 4.40524 3.92185 4.46387 3.552 4.57703C3.626 5.64403 4.38301 6.37698 5.80901 6.77698L5.797 6.802C5.53851 6.77876 5.27824 6.81846 5.03844 6.91772C4.79863 7.01699 4.58643 7.17287 4.42 7.37201C4.65346 7.82135 5.01817 8.18899 5.46564 8.42603C5.9131 8.66306 6.42211 8.75824 6.925 8.69897C6.71902 8.79603 6.53364 8.93186 6.379 9.099C6.27245 9.20341 6.19564 9.33433 6.15645 9.47827C6.11726 9.62221 6.1171 9.77401 6.15601 9.91803C6.29628 10.155 6.50535 10.3436 6.75543 10.4588C7.00551 10.574 7.28475 10.6103 7.556 10.563L7.593 10.613L7.58099 10.638C7.04264 11.2198 6.3784 11.6709 5.63902 11.9567C4.89965 12.2425 4.10473 12.3555 3.315 12.287L3.28999 12.3C2.05773 12.1974 0.897259 11.6779 0 10.827C1.16084 12.505 2.79793 13.7965 4.7 14.535C6.85563 15.2692 9.18446 15.3254 11.373 14.696H11.41C13.6084 14.041 15.5358 12.6922 16.904 10.851C17.5361 9.98629 17.979 8.99818 18.204 7.95099C18.661 8.01033 19.1257 7.95143 19.5534 7.77985C19.9811 7.60826 20.3577 7.32975 20.647 6.97101L20.635 6.94598C19.902 7.07563 19.1488 7.03321 18.435 6.82202V6.70001C19.6257 6.56668 20.3327 6.18233 20.556 5.547C19.771 5.87103 18.8914 5.88001 18.1 5.57202C17.9228 4.39753 17.3599 3.31531 16.5 2.49597" fill="white"/>
</svg>
