<svg width="11" height="21" viewBox="0 0 11 21" fill="none" xmlns="http://www.w3.org/2000/svg">
<path d="M5.6679 20.8029C5.34902 20.8029 5.08154 20.6967 4.86545 20.4843C4.65012 20.2726 4.54245 20.01 4.54245 19.6966V18.4243C3.69836 18.2399 2.95744 17.9172 2.31969 17.4562C1.68193 16.9953 1.1661 16.3499 0.772197 15.5202C0.640895 15.262 0.636018 14.9902 0.757567 14.7048C0.879865 14.4186 1.10045 14.211 1.41933 14.0819C1.68193 13.9713 1.95392 13.9761 2.23528 14.0963C2.51664 14.2158 2.73235 14.4138 2.88241 14.6904C3.20129 15.2436 3.60457 15.6632 4.09227 15.9494C4.57996 16.2349 5.1802 16.3776 5.89299 16.3776C6.66204 16.3776 7.31405 16.2072 7.84901 15.8664C8.38323 15.525 8.65033 14.9947 8.65033 14.2755C8.65033 13.6302 8.444 13.1183 8.03134 12.7399C7.61867 12.3623 6.66204 11.9338 5.16144 11.4544C3.5483 10.9565 2.44161 10.3621 1.84137 9.67098C1.24113 8.97915 0.941014 8.13539 0.941014 7.13969C0.941014 5.94117 1.33492 5.01 2.12273 4.3462C2.91055 3.6824 3.71712 3.30441 4.54245 3.21221V1.99525C4.54245 1.68179 4.65012 1.41885 4.86545 1.20643C5.08154 0.994755 5.34902 0.888916 5.6679 0.888916C5.98677 0.888916 6.25425 0.994755 6.47034 1.20643C6.68568 1.41885 6.79334 1.68179 6.79334 1.99525V3.21221C7.50613 3.32285 8.12512 3.54891 8.65033 3.8904C9.17554 4.23115 9.60696 4.65045 9.9446 5.14829C10.1134 5.388 10.1464 5.65536 10.0436 5.95039C9.9401 6.24541 9.72889 6.45745 9.41001 6.58653C9.14741 6.69716 8.87542 6.70158 8.59406 6.5998C8.3127 6.49876 8.05009 6.31916 7.80625 6.06102C7.5624 5.80288 7.27654 5.60447 6.94866 5.46581C6.62002 5.32789 6.21186 5.25893 5.72417 5.25893C4.89884 5.25893 4.27046 5.43889 3.83904 5.79882C3.40762 6.15801 3.19191 6.60497 3.19191 7.13969C3.19191 7.74818 3.47327 8.22759 4.036 8.57792C4.59872 8.92826 5.57411 9.29704 6.96216 9.68426C8.25643 10.053 9.23669 10.6383 9.90296 11.44C10.5685 12.2425 10.9012 13.1692 10.9012 14.2202C10.9012 15.5294 10.5073 16.5251 9.71951 17.2073C8.9317 17.8896 7.95631 18.3136 6.79334 18.4796V19.6966C6.79334 20.01 6.68568 20.2726 6.47034 20.4843C6.25425 20.6967 5.98677 20.8029 5.6679 20.8029Z" fill="#6674CC"/>
</svg>
