<svg width="10" height="20" viewBox="0 0 10 20" fill="none" xmlns="http://www.w3.org/2000/svg">
<path d="M4.88498 20C4.57331 20 4.31188 19.8933 4.10068 19.68C3.89021 19.4674 3.78498 19.2037 3.78498 18.8889V17.6111C2.95997 17.4259 2.2358 17.1019 1.61247 16.6389C0.989133 16.1759 0.484965 15.5278 0.0999633 14.6944C-0.0283705 14.4352 -0.0331372 14.1622 0.0856632 13.8756C0.205197 13.5881 0.420798 13.3796 0.732466 13.25C0.989133 13.1389 1.25497 13.1437 1.52997 13.2644C1.80497 13.3844 2.0158 13.5833 2.16247 13.8611C2.47414 14.4167 2.86831 14.8381 3.34498 15.1256C3.82164 15.4122 4.40831 15.5556 5.10498 15.5556C5.85665 15.5556 6.49392 15.3844 7.01679 15.0422C7.53892 14.6993 7.79999 14.1667 7.79999 13.4444C7.79999 12.7963 7.59832 12.2822 7.19499 11.9022C6.79165 11.523 5.85665 11.0926 4.38998 10.6111C2.81331 10.1111 1.73164 9.51407 1.14497 8.82C0.558298 8.12518 0.264964 7.27778 0.264964 6.27778C0.264964 5.07407 0.649965 4.13889 1.41997 3.47222C2.18997 2.80556 2.97831 2.42593 3.78498 2.33333V1.11111C3.78498 0.796296 3.89021 0.532222 4.10068 0.318889C4.31188 0.106296 4.57331 0 4.88498 0C5.19665 0 5.45808 0.106296 5.66928 0.318889C5.87975 0.532222 5.98498 0.796296 5.98498 1.11111V2.33333C6.68165 2.44444 7.28666 2.67148 7.79999 3.01444C8.31333 3.35667 8.735 3.77778 9.065 4.27778C9.23 4.51852 9.26227 4.78704 9.1618 5.08333C9.0606 5.37963 8.85416 5.59259 8.5425 5.72222C8.28583 5.83333 8.01999 5.83778 7.74499 5.73556C7.46999 5.63407 7.21332 5.4537 6.97499 5.19445C6.73666 4.93519 6.45725 4.73593 6.13679 4.59667C5.81558 4.45815 5.41665 4.38889 4.93998 4.38889C4.13331 4.38889 3.51914 4.56963 3.09747 4.93111C2.67581 5.29185 2.46497 5.74074 2.46497 6.27778C2.46497 6.88889 2.73997 7.37037 3.28998 7.72222C3.83998 8.07407 4.79331 8.44445 6.14999 8.83333C7.41499 9.2037 8.3731 9.79148 9.0243 10.5967C9.67477 11.4026 10 12.3333 10 13.3889C10 14.7037 9.615 15.7037 8.845 16.3889C8.07499 17.0741 7.12166 17.5 5.98498 17.6667V18.8889C5.98498 19.2037 5.87975 19.4674 5.66928 19.68C5.45808 19.8933 5.19665 20 4.88498 20Z" fill="#6674CC"/>
</svg>
