<svg width="11" height="21" viewBox="0 0 11 21" fill="none" xmlns="http://www.w3.org/2000/svg">
<path d="M5.6679 20.5379C5.34902 20.5379 5.08154 20.4317 4.86545 20.2193C4.65012 20.0076 4.54245 19.745 4.54245 19.4315V18.1593C3.69836 17.9749 2.95744 17.6522 2.31969 17.1912C1.68193 16.7303 1.1661 16.0849 0.772197 15.2551C0.640895 14.997 0.636018 14.7252 0.757567 14.4398C0.879865 14.1536 1.10045 13.946 1.41933 13.8169C1.68193 13.7063 1.95392 13.7111 2.23528 13.8313C2.51664 13.9508 2.73235 14.1488 2.88241 14.4254C3.20129 14.9786 3.60457 15.3982 4.09227 15.6844C4.57996 15.9698 5.1802 16.1126 5.89299 16.1126C6.66204 16.1126 7.31405 15.9422 7.84901 15.6014C8.38323 15.2599 8.65033 14.7296 8.65033 14.0105C8.65033 13.3652 8.444 12.8533 8.03134 12.4749C7.61867 12.0973 6.66204 11.6688 5.16144 11.1894C3.5483 10.6915 2.44161 10.0971 1.84137 9.40597C1.24113 8.71414 0.941014 7.87038 0.941014 6.87468C0.941014 5.67615 1.33492 4.74499 2.12273 4.08119C2.91055 3.41739 3.71712 3.03939 4.54245 2.9472V1.73023C4.54245 1.41677 4.65012 1.15383 4.86545 0.941419C5.08154 0.72974 5.34902 0.623901 5.6679 0.623901C5.98677 0.623901 6.25425 0.72974 6.47034 0.941419C6.68568 1.15383 6.79334 1.41677 6.79334 1.73023V2.9472C7.50613 3.05783 8.12512 3.28389 8.65033 3.62538C9.17554 3.96613 9.60696 4.38543 9.9446 4.88328C10.1134 5.12299 10.1464 5.39035 10.0436 5.68537C9.9401 5.98039 9.72889 6.19244 9.41001 6.32151C9.14741 6.43214 8.87542 6.43657 8.59406 6.33479C8.3127 6.23374 8.05009 6.05415 7.80625 5.796C7.5624 5.53786 7.27654 5.33946 6.94866 5.2008C6.62002 5.06287 6.21186 4.99391 5.72417 4.99391C4.89884 4.99391 4.27046 5.17388 3.83904 5.5338C3.40762 5.89299 3.19191 6.33995 3.19191 6.87468C3.19191 7.48316 3.47327 7.96257 4.036 8.31291C4.59872 8.66325 5.57411 9.03203 6.96216 9.41924C8.25643 9.78802 9.23669 10.3733 9.90296 11.175C10.5685 11.9775 10.9012 12.9042 10.9012 13.9552C10.9012 15.2644 10.5073 16.2601 9.71951 16.9423C8.9317 17.6245 7.95631 18.0486 6.79334 18.2146V19.4315C6.79334 19.745 6.68568 20.0076 6.47034 20.2193C6.25425 20.4317 5.98677 20.5379 5.6679 20.5379Z" fill="#6674CC"/>
</svg>
